<svg width="14" height="18" viewBox="0 0 14 18" fill="none" xmlns="http://www.w3.org/2000/svg">
<path d="M7 17.3906C6.04688 17.3906 5.15365 17.2109 4.32031 16.8516C3.48698 16.4974 2.7526 16.0052 2.11719 15.375C1.48698 14.7396 0.992188 14.0052 0.632812 13.1719C0.278646 12.3385 0.101562 11.4453 0.101562 10.4922C0.101562 9.53906 0.278646 8.64583 0.632812 7.8125C0.992188 6.97917 1.48698 6.2474 2.11719 5.61719C2.7526 4.98177 3.48698 4.48698 4.32031 4.13281C5.15365 3.77344 6.04688 3.59375 7 3.59375C7.41667 3.59375 7.82292 3.63021 8.21875 3.70312C8.61458 3.77604 8.99219 3.88021 9.35156 4.01562C9.46094 4.05729 9.57292 4.1224 9.6875 4.21094C9.80208 4.29948 9.85677 4.44271 9.85156 4.64062C9.85156 4.80208 9.80469 4.9349 9.71094 5.03906C9.6224 5.13802 9.51042 5.20312 9.375 5.23438C9.23958 5.26042 9.10677 5.2474 8.97656 5.19531C8.66406 5.08073 8.34375 4.99479 8.01562 4.9375C7.6875 4.875 7.34896 4.84375 7 4.84375C6.22396 4.84375 5.49479 4.98958 4.8125 5.28125C4.13021 5.57292 3.52865 5.97917 3.00781 6.5C2.49219 7.01562 2.08854 7.61458 1.79688 8.29688C1.50521 8.97917 1.35938 9.70833 1.35938 10.4844C1.35938 11.2656 1.50521 11.9974 1.79688 12.6797C2.08854 13.362 2.49219 13.9609 3.00781 14.4766C3.52865 14.9922 4.13021 15.3958 4.8125 15.6875C5.49479 15.9792 6.22396 16.125 7 16.125C7.78125 16.125 8.51302 15.9792 9.19531 15.6875C9.8776 15.3958 10.4766 14.9922 10.9922 14.4766C11.5078 13.9609 11.9115 13.362 12.2031 12.6797C12.4948 11.9974 12.6406 11.2656 12.6406 10.4844C12.6406 10.3125 12.7031 10.1667 12.8281 10.0469C12.9531 9.92188 13.1016 9.85938 13.2734 9.85938C13.4453 9.85938 13.5911 9.92188 13.7109 10.0469C13.8359 10.1667 13.8984 10.3125 13.8984 10.4844C13.8984 11.4427 13.7188 12.3385 13.3594 13.1719C13.0052 14.0052 12.5104 14.7396 11.875 15.375C11.2448 16.0052 10.513 16.4974 9.67969 16.8516C8.84635 17.2109 7.95312 17.3906 7 17.3906ZM9.11719 4.53125L6.27344 1.70312C6.21094 1.64062 6.16667 1.57031 6.14062 1.49219C6.11458 1.41406 6.10156 1.33333 6.10156 1.25C6.10156 1.07292 6.15885 0.921875 6.27344 0.796875C6.39323 0.671875 6.53906 0.609375 6.71094 0.609375C6.88802 0.609375 7.04167 0.674479 7.17188 0.804688L10.3828 4.07031C10.5182 4.20052 10.5859 4.35677 10.5859 4.53906C10.5859 4.6276 10.5703 4.71094 10.5391 4.78906C10.5078 4.86719 10.4557 4.9401 10.3828 5.00781L7.16406 8.24219C7.03906 8.36198 6.88802 8.42188 6.71094 8.42188C6.53906 8.42188 6.39323 8.36198 6.27344 8.24219C6.15885 8.1224 6.10156 7.97135 6.10156 7.78906C6.10156 7.71094 6.11458 7.63281 6.14062 7.55469C6.16667 7.47656 6.21354 7.40885 6.28125 7.35156L9.11719 4.53125Z" fill="#B8484D"/>
</svg>
