<svg width="478" height="272" viewBox="0 0 478 272" fill="none" xmlns="http://www.w3.org/2000/svg">
<path d="M16.5935 230.898L5.29663 262H0.679443L13.6873 227.875H16.6638L16.5935 230.898ZM26.0623 262L14.7419 230.898L14.6716 227.875H17.6482L30.7029 262H26.0623ZM25.4763 249.367L25.4763 253.07H6.30444L6.30444 249.367H25.4763ZM44.5076 262H37.3826L37.4294 258.32H44.5076C46.9451 258.32 48.9763 257.812 50.6013 256.797C52.2263 255.766 53.4451 254.328 54.2576 252.484C55.0857 250.625 55.4998 248.453 55.4998 245.969V243.883C55.4998 241.93 55.2654 240.195 54.7966 238.68C54.3279 237.148 53.6404 235.859 52.7341 234.812C51.8279 233.75 50.7185 232.945 49.406 232.398C48.1091 231.852 46.6169 231.578 44.9294 231.578H37.2419V227.875H44.9294C47.1638 227.875 49.2029 228.25 51.0466 229C52.8904 229.734 54.4763 230.805 55.8044 232.211C57.1482 233.602 58.1794 235.289 58.8982 237.273C59.6169 239.242 59.9763 241.461 59.9763 243.93V245.969C59.9763 248.438 59.6169 250.664 58.8982 252.648C58.1794 254.617 57.1404 256.297 55.781 257.688C54.4373 259.078 52.8123 260.148 50.906 260.898C49.0154 261.633 46.8826 262 44.5076 262ZM39.7966 227.875L39.7966 262H35.2732L35.2732 227.875H39.7966ZM68.2029 227.875H72.5857L83.7654 255.695L94.9216 227.875H99.3279L85.4529 262H82.031L68.2029 227.875ZM66.7732 227.875H70.6404L71.2732 248.688V262H66.7732V227.875ZM96.8669 227.875H100.734V262H96.2341V248.688L96.8669 227.875ZM113.531 227.875V262H109.008V227.875H113.531ZM139.945 253.375C139.945 252.578 139.82 251.875 139.57 251.266C139.336 250.641 138.914 250.078 138.304 249.578C137.711 249.078 136.883 248.602 135.82 248.148C134.773 247.695 133.445 247.234 131.836 246.766C130.148 246.266 128.625 245.711 127.265 245.102C125.906 244.477 124.742 243.766 123.773 242.969C122.804 242.172 122.062 241.258 121.547 240.227C121.031 239.195 120.773 238.016 120.773 236.687C120.773 235.359 121.047 234.133 121.594 233.008C122.14 231.883 122.922 230.906 123.937 230.078C124.969 229.234 126.195 228.578 127.617 228.109C129.039 227.641 130.625 227.406 132.375 227.406C134.937 227.406 137.109 227.898 138.89 228.883C140.687 229.852 142.054 231.125 142.992 232.703C143.929 234.266 144.398 235.937 144.398 237.719H139.898C139.898 236.437 139.625 235.305 139.078 234.32C138.531 233.32 137.703 232.539 136.594 231.977C135.484 231.398 134.078 231.109 132.375 231.109C130.765 231.109 129.437 231.352 128.39 231.836C127.344 232.32 126.562 232.977 126.047 233.805C125.547 234.633 125.297 235.578 125.297 236.641C125.297 237.359 125.445 238.016 125.742 238.609C126.054 239.187 126.531 239.727 127.172 240.227C127.828 240.727 128.656 241.187 129.656 241.609C130.672 242.031 131.883 242.437 133.289 242.828C135.226 243.375 136.898 243.984 138.304 244.656C139.711 245.328 140.867 246.086 141.773 246.93C142.695 247.758 143.375 248.703 143.812 249.766C144.265 250.812 144.492 252 144.492 253.328C144.492 254.719 144.211 255.977 143.648 257.102C143.086 258.227 142.281 259.188 141.234 259.984C140.187 260.781 138.929 261.398 137.461 261.836C136.008 262.258 134.383 262.469 132.586 262.469C131.008 262.469 129.453 262.25 127.922 261.812C126.406 261.375 125.023 260.719 123.773 259.844C122.539 258.969 121.547 257.891 120.797 256.609C120.062 255.312 119.695 253.812 119.695 252.109H124.195C124.195 253.281 124.422 254.289 124.875 255.133C125.328 255.961 125.945 256.648 126.726 257.195C127.523 257.742 128.422 258.148 129.422 258.414C130.437 258.664 131.492 258.789 132.586 258.789C134.164 258.789 135.5 258.57 136.594 258.133C137.687 257.695 138.515 257.07 139.078 256.258C139.656 255.445 139.945 254.484 139.945 253.375ZM168.445 253.375C168.445 252.578 168.32 251.875 168.07 251.266C167.836 250.641 167.414 250.078 166.804 249.578C166.211 249.078 165.383 248.602 164.32 248.148C163.273 247.695 161.945 247.234 160.336 246.766C158.648 246.266 157.125 245.711 155.765 245.102C154.406 244.477 153.242 243.766 152.273 242.969C151.304 242.172 150.562 241.258 150.047 240.227C149.531 239.195 149.273 238.016 149.273 236.687C149.273 235.359 149.547 234.133 150.094 233.008C150.64 231.883 151.422 230.906 152.437 230.078C153.469 229.234 154.695 228.578 156.117 228.109C157.539 227.641 159.125 227.406 160.875 227.406C163.437 227.406 165.609 227.898 167.39 228.883C169.187 229.852 170.554 231.125 171.492 232.703C172.429 234.266 172.898 235.937 172.898 237.719H168.398C168.398 236.437 168.125 235.305 167.578 234.32C167.031 233.32 166.203 232.539 165.094 231.977C163.984 231.398 162.578 231.109 160.875 231.109C159.265 231.109 157.937 231.352 156.89 231.836C155.844 232.32 155.062 232.977 154.547 233.805C154.047 234.633 153.797 235.578 153.797 236.641C153.797 237.359 153.945 238.016 154.242 238.609C154.554 239.187 155.031 239.727 155.672 240.227C156.328 240.727 157.156 241.187 158.156 241.609C159.172 242.031 160.383 242.437 161.789 242.828C163.726 243.375 165.398 243.984 166.804 244.656C168.211 245.328 169.367 246.086 170.273 246.93C171.195 247.758 171.875 248.703 172.312 249.766C172.765 250.812 172.992 252 172.992 253.328C172.992 254.719 172.711 255.977 172.148 257.102C171.586 258.227 170.781 259.188 169.734 259.984C168.687 260.781 167.429 261.398 165.961 261.836C164.508 262.258 162.883 262.469 161.086 262.469C159.508 262.469 157.953 262.25 156.422 261.812C154.906 261.375 153.523 260.719 152.273 259.844C151.039 258.969 150.047 257.891 149.297 256.609C148.562 255.312 148.195 253.812 148.195 252.109H152.695C152.695 253.281 152.922 254.289 153.375 255.133C153.828 255.961 154.445 256.648 155.226 257.195C156.023 257.742 156.922 258.148 157.922 258.414C158.937 258.664 159.992 258.789 161.086 258.789C162.664 258.789 164 258.57 165.094 258.133C166.187 257.695 167.015 257.07 167.578 256.258C168.156 255.445 168.445 254.484 168.445 253.375ZM183.609 227.875V262H179.086V227.875H183.609ZM218.109 243.859V246.016C218.109 248.578 217.789 250.875 217.148 252.906C216.508 254.937 215.586 256.664 214.383 258.086C213.179 259.508 211.734 260.594 210.047 261.344C208.375 262.094 206.5 262.469 204.422 262.469C202.406 262.469 200.554 262.094 198.867 261.344C197.195 260.594 195.742 259.508 194.508 258.086C193.289 256.664 192.344 254.937 191.672 252.906C191 250.875 190.664 248.578 190.664 246.016V243.859C190.664 241.297 190.992 239.008 191.648 236.992C192.32 234.961 193.265 233.234 194.484 231.812C195.703 230.375 197.148 229.281 198.82 228.531C200.508 227.781 202.359 227.406 204.375 227.406C206.453 227.406 208.328 227.781 210 228.531C211.687 229.281 213.133 230.375 214.336 231.812C215.554 233.234 216.484 234.961 217.125 236.992C217.781 239.008 218.109 241.297 218.109 243.859ZM213.633 246.016V243.812C213.633 241.781 213.422 239.984 213 238.422C212.594 236.859 211.992 235.547 211.195 234.484C210.398 233.422 209.422 232.617 208.265 232.07C207.125 231.523 205.828 231.25 204.375 231.25C202.969 231.25 201.695 231.523 200.554 232.07C199.429 232.617 198.461 233.422 197.648 234.484C196.851 235.547 196.234 236.859 195.797 238.422C195.359 239.984 195.14 241.781 195.14 243.812V246.016C195.14 248.062 195.359 249.875 195.797 251.453C196.234 253.016 196.859 254.336 197.672 255.414C198.5 256.477 199.476 257.281 200.601 257.828C201.742 258.375 203.015 258.648 204.422 258.648C205.89 258.648 207.195 258.375 208.336 257.828C209.476 257.281 210.437 256.477 211.219 255.414C212.015 254.336 212.617 253.016 213.023 251.453C213.429 249.875 213.633 248.062 213.633 246.016ZM251.133 227.875V262H246.586L229.406 235.68V262H224.883V227.875H229.406L246.656 254.266V227.875H251.133Z" fill="url(#paint0_linear_1400_1844)"/>
<path d="M258.212 8.875V43H253.665L236.486 16.6797V43H231.962V8.875L236.486 8.875L253.736 35.2656V8.875L258.212 8.875ZM279.283 11.8984L267.986 43H263.369L276.376 8.875L279.353 8.875L279.283 11.8984ZM288.751 43L277.431 11.8984L277.361 8.875L280.337 8.875L293.392 43H288.751ZM288.165 30.3672V34.0703H268.994V30.3672L288.165 30.3672ZM307.525 8.875V43H303.072V8.875H307.525ZM318.494 8.875V12.5781L292.126 12.5781V8.875L318.494 8.875ZM328.408 8.875V43H323.884V8.875H328.408ZM362.908 24.8594V27.0156C362.908 29.5781 362.587 31.875 361.947 33.9062C361.306 35.9375 360.384 37.6641 359.181 39.0859C357.978 40.5078 356.533 41.5937 354.845 42.3437C353.173 43.0937 351.298 43.4687 349.22 43.4687C347.204 43.4687 345.353 43.0937 343.665 42.3437C341.994 41.5937 340.54 40.5078 339.306 39.0859C338.087 37.6641 337.142 35.9375 336.47 33.9062C335.798 31.875 335.462 29.5781 335.462 27.0156V24.8594C335.462 22.2969 335.79 20.0078 336.447 17.9922C337.119 15.9609 338.064 14.2344 339.283 12.8125C340.501 11.375 341.947 10.2812 343.619 9.53125C345.306 8.78125 347.158 8.40625 349.173 8.40625C351.251 8.40625 353.126 8.78125 354.798 9.53125C356.486 10.2812 357.931 11.375 359.134 12.8125C360.353 14.2344 361.283 15.9609 361.923 17.9922C362.579 20.0078 362.908 22.2969 362.908 24.8594ZM358.431 27.0156V24.8125C358.431 22.7812 358.22 20.9844 357.798 19.4219C357.392 17.8594 356.79 16.5469 355.994 15.4844C355.197 14.4219 354.22 13.6172 353.064 13.0703C351.923 12.5234 350.626 12.25 349.173 12.25C347.767 12.25 346.494 12.5234 345.353 13.0703C344.228 13.6172 343.259 14.4219 342.447 15.4844C341.65 16.5469 341.033 17.8594 340.595 19.4219C340.158 20.9844 339.939 22.7812 339.939 24.8125V27.0156C339.939 29.0625 340.158 30.875 340.595 32.4531C341.033 34.0156 341.658 35.3359 342.47 36.4141C343.298 37.4766 344.275 38.2812 345.4 38.8281C346.54 39.375 347.814 39.6484 349.22 39.6484C350.689 39.6484 351.994 39.375 353.134 38.8281C354.275 38.2812 355.236 37.4766 356.017 36.4141C356.814 35.3359 357.415 34.0156 357.822 32.4531C358.228 30.875 358.431 29.0625 358.431 27.0156ZM395.931 8.875V43H391.384L374.204 16.6797V43H369.681V8.875H374.204L391.454 35.2656V8.875H395.931ZM417.001 11.8984L405.704 43H401.087L414.095 8.875H417.072L417.001 11.8984ZM426.47 43L415.15 11.8984L415.079 8.875H418.056L431.111 43L426.47 43ZM425.884 30.3672V34.0703H406.712V30.3672L425.884 30.3672ZM456.376 39.3203V43H439.314V39.3203H456.376ZM440.204 8.875V43H435.681V8.875H440.204Z" fill="url(#paint1_linear_1400_1844)"/>
<path d="M24.5701 81.875L24.5701 116H20.1169L20.1169 81.875H24.5701ZM35.5388 81.875V85.5781H9.17163V81.875H35.5388ZM51.3591 84.8984L40.0623 116H35.4451L48.4529 81.875H51.4294L51.3591 84.8984ZM60.8279 116L49.5076 84.8984L49.4373 81.875H52.4138L65.4685 116H60.8279ZM60.2419 103.367V107.07H41.0701V103.367H60.2419ZM74.8904 81.875V116L70.3669 116V81.875H74.8904ZM92.0935 105.687L98.8669 81.875H102.148L100.25 91.1328L92.9607 116H89.7029L92.0935 105.687ZM85.0857 81.875L90.4763 105.219L92.0935 116H88.8591L80.5857 81.875H85.0857ZM110.914 105.195L116.187 81.875H120.711L112.461 116H109.226L110.914 105.195ZM102.64 81.875L109.226 105.687L111.617 116H108.359L101.328 91.1328L99.406 81.875H102.64ZM137.328 84.8984L126.031 116H121.414L134.422 81.875L137.398 81.875L137.328 84.8984ZM146.797 116L135.476 84.8984L135.406 81.875H138.383L151.437 116H146.797ZM146.211 103.367V107.07H127.039V103.367L146.211 103.367ZM182.258 81.875V116H177.711L160.531 89.6797V116H156.008V81.875H160.531L177.781 108.266V81.875H182.258Z" fill="url(#paint2_linear_1400_1844)"/>
<path d="M236.486 154.875H240.986V177.961C240.986 180.523 240.415 182.656 239.275 184.359C238.134 186.062 236.619 187.344 234.728 188.203C232.853 189.047 230.814 189.469 228.611 189.469C226.298 189.469 224.204 189.047 222.329 188.203C220.47 187.344 218.994 186.062 217.9 184.359C216.822 182.656 216.283 180.523 216.283 177.961V154.875H220.759V177.961C220.759 179.742 221.087 181.211 221.744 182.367C222.4 183.523 223.314 184.383 224.486 184.945C225.673 185.508 227.048 185.789 228.611 185.789C230.189 185.789 231.564 185.508 232.736 184.945C233.923 184.383 234.845 183.523 235.501 182.367C236.158 181.211 236.486 179.742 236.486 177.961V154.875ZM274.337 154.875V189H269.79L252.611 162.68V189H248.087V154.875H252.611L269.861 181.266V154.875H274.337ZM287.204 154.875V189H282.681V154.875H287.204ZM306.447 183.82L316.501 154.875H321.4L308.767 189H305.275L306.447 183.82ZM297.048 154.875L307.009 183.82L308.251 189H304.759L292.15 154.875H297.048ZM347.673 185.32V189H329.603V185.32H347.673ZM330.517 154.875V189H325.994V154.875H330.517ZM345.283 169.547V173.227H329.603V169.547H345.283ZM347.439 154.875V158.578H329.603V154.875H347.439ZM353.275 154.875H364.572C367.134 154.875 369.298 155.266 371.064 156.047C372.845 156.828 374.197 157.984 375.119 159.516C376.056 161.031 376.525 162.898 376.525 165.117C376.525 166.68 376.204 168.109 375.564 169.406C374.939 170.687 374.033 171.781 372.845 172.687C371.673 173.578 370.267 174.242 368.626 174.68L367.361 175.172H356.744L356.697 171.492H364.712C366.337 171.492 367.689 171.211 368.767 170.648C369.845 170.07 370.658 169.297 371.204 168.328C371.751 167.359 372.025 166.289 372.025 165.117C372.025 163.805 371.767 162.656 371.251 161.672C370.736 160.687 369.923 159.93 368.814 159.398C367.72 158.852 366.306 158.578 364.572 158.578H357.798V189H353.275V154.875ZM373.22 189L364.923 173.531L369.634 173.508L378.048 188.719V189H373.22ZM401.04 180.375C401.04 179.578 400.915 178.875 400.665 178.266C400.431 177.641 400.009 177.078 399.4 176.578C398.806 176.078 397.978 175.602 396.915 175.148C395.869 174.695 394.54 174.234 392.931 173.766C391.244 173.266 389.72 172.711 388.361 172.102C387.001 171.477 385.837 170.766 384.869 169.969C383.9 169.172 383.158 168.258 382.642 167.227C382.126 166.195 381.869 165.016 381.869 163.687C381.869 162.359 382.142 161.133 382.689 160.008C383.236 158.883 384.017 157.906 385.033 157.078C386.064 156.234 387.29 155.578 388.712 155.109C390.134 154.641 391.72 154.406 393.47 154.406C396.033 154.406 398.204 154.898 399.986 155.883C401.783 156.852 403.15 158.125 404.087 159.703C405.025 161.266 405.494 162.937 405.494 164.719H400.994C400.994 163.437 400.72 162.305 400.173 161.32C399.626 160.32 398.798 159.539 397.689 158.977C396.579 158.398 395.173 158.109 393.47 158.109C391.861 158.109 390.533 158.352 389.486 158.836C388.439 159.32 387.658 159.977 387.142 160.805C386.642 161.633 386.392 162.578 386.392 163.641C386.392 164.359 386.54 165.016 386.837 165.609C387.15 166.187 387.626 166.727 388.267 167.227C388.923 167.727 389.751 168.187 390.751 168.609C391.767 169.031 392.978 169.437 394.384 169.828C396.322 170.375 397.994 170.984 399.4 171.656C400.806 172.328 401.962 173.086 402.869 173.93C403.79 174.758 404.47 175.703 404.908 176.766C405.361 177.812 405.587 179 405.587 180.328C405.587 181.719 405.306 182.977 404.744 184.102C404.181 185.227 403.376 186.187 402.329 186.984C401.283 187.781 400.025 188.398 398.556 188.836C397.103 189.258 395.478 189.469 393.681 189.469C392.103 189.469 390.548 189.25 389.017 188.812C387.501 188.375 386.119 187.719 384.869 186.844C383.634 185.969 382.642 184.891 381.892 183.609C381.158 182.312 380.79 180.812 380.79 179.109H385.29C385.29 180.281 385.517 181.289 385.97 182.133C386.423 182.961 387.04 183.648 387.822 184.195C388.619 184.742 389.517 185.148 390.517 185.414C391.533 185.664 392.587 185.789 393.681 185.789C395.259 185.789 396.595 185.57 397.689 185.133C398.783 184.695 399.611 184.07 400.173 183.258C400.751 182.445 401.04 181.484 401.04 180.375ZM416.204 154.875V189H411.681V154.875H416.204ZM436.337 154.875V189H431.884V154.875H436.337ZM447.306 154.875V158.578H420.939V154.875H447.306ZM454.314 154.875L463.173 172.008L472.056 154.875L477.189 154.875L465.423 176.25V189H460.9V176.25L449.134 154.875H454.314Z" fill="url(#paint3_linear_1400_1844)"/>
<defs>
<linearGradient id="paint0_linear_1400_1844" x1="22.2606" y1="245.5" x2="256" y2="245.5" gradientUnits="userSpaceOnUse">
<stop stop-color="white" stop-opacity="0.3"/>
<stop offset="0.5" stop-color="white"/>
<stop offset="1" stop-color="white" stop-opacity="0.3"/>
</linearGradient>
<linearGradient id="paint1_linear_1400_1844" x1="248.001" y1="26.5" x2="458.001" y2="26.5" gradientUnits="userSpaceOnUse">
<stop stop-color="white" stop-opacity="0.3"/>
<stop offset="0.5" stop-color="white"/>
<stop offset="1" stop-color="white" stop-opacity="0.3"/>
</linearGradient>
<linearGradient id="paint2_linear_1400_1844" x1="23.565" y1="99.5" x2="187" y2="99.5" gradientUnits="userSpaceOnUse">
<stop stop-color="white" stop-opacity="0.3"/>
<stop offset="0.5" stop-color="white"/>
<stop offset="1" stop-color="white" stop-opacity="0.3"/>
</linearGradient>
<linearGradient id="paint3_linear_1400_1844" x1="236.045" y1="172.5" x2="478.001" y2="172.5" gradientUnits="userSpaceOnUse">
<stop stop-color="white" stop-opacity="0.3"/>
<stop offset="0.5" stop-color="white"/>
<stop offset="1" stop-color="white" stop-opacity="0.3"/>
</linearGradient>
</defs>
</svg>
