<svg width="95" height="88" viewBox="0 0 95 88" fill="none" xmlns="http://www.w3.org/2000/svg">
<g clip-path="url(#clip0_1414_1946)">
<path d="M46.93 15.2411L20.0064 24.4992C18.4197 25.0448 17.1146 26.1985 16.3784 27.7063C15.6422 29.2142 15.5351 30.9527 16.0808 32.5395L32.5396 80.4036C33.0852 81.9904 34.2389 83.2954 35.7467 84.0316C37.2546 84.7678 38.9931 84.8749 40.5799 84.3292L76.478 71.9851C78.0648 71.4395 79.3698 70.2858 80.106 68.778C80.8422 67.2701 80.9493 65.5316 80.4036 63.9448L67.0309 25.0552L46.93 15.2411Z" fill="#96BBF6"/>
<path d="M43.9385 16.2698L48.0532 28.2358C48.5988 29.8226 49.7525 31.1276 51.2603 31.8638C52.7682 32.6 54.5067 32.7071 56.0935 32.1614L68.0595 28.0467" fill="#5C95F1"/>
</g>
<defs>
<clipPath id="clip0_1414_1946">
<path d="M4.55249 37.9274C2.03822 30.6156 5.92737 22.65 13.2391 20.1357L58.5569 4.55254C65.8687 2.03827 73.8343 5.92742 76.3486 13.2392L96.4843 71.7961L24.6882 96.4843L4.55249 37.9274Z" fill="white"/>
</clipPath>
</defs>
</svg>
