<svg width="431" height="299" viewBox="0 0 431 299" fill="none" xmlns="http://www.w3.org/2000/svg">
<g filter="url(#filter0_d_1392_1056)">
<rect width="374.772" height="254.256" rx="12" transform="matrix(0.999952 -0.00983008 -0.0947472 0.995501 25.0007 3.68408)" fill="url(#paint0_linear_1392_1056)"/>
<rect width="374.772" height="254.256" rx="12" transform="matrix(0.999952 -0.00983008 -0.0947472 0.995501 25.0007 3.68408)" fill="white" fill-opacity="0.2"/>
<rect x="0.905204" y="0.985671" width="372.772" height="252.256" rx="11" transform="matrix(0.999952 -0.00983008 -0.0947472 0.995501 25.0942 3.69741)" stroke="#689DF2" stroke-opacity="0.9" stroke-width="2"/>
<rect x="0.905204" y="0.985671" width="372.772" height="252.256" rx="11" transform="matrix(0.999952 -0.00983008 -0.0947472 0.995501 25.0942 3.69741)" stroke="url(#paint1_linear_1392_1056)" stroke-width="2"/>
<rect x="0.905204" y="0.985671" width="372.772" height="252.256" rx="11" transform="matrix(0.999952 -0.00983008 -0.0947472 0.995501 25.0942 3.69741)" stroke="url(#paint2_linear_1392_1056)" stroke-width="2"/>
<rect x="0.905204" y="0.985671" width="372.772" height="252.256" rx="11" transform="matrix(0.999952 -0.00983008 -0.0947472 0.995501 25.0942 3.69741)" stroke="url(#paint3_linear_1392_1056)" stroke-opacity="0.3" stroke-width="2"/>
<ellipse cx="6" cy="6" rx="6" ry="6" transform="matrix(0.999952 -0.00983008 -0.0947472 0.995501 46.7256 27.3402)" fill="#6B9FF2"/>
<ellipse cx="6" cy="6" rx="6" ry="6" transform="matrix(0.999952 -0.00983008 -0.0947472 0.995501 64.7247 27.1632)" fill="#6B9FF2"/>
<ellipse cx="6" cy="6" rx="6" ry="6" transform="matrix(0.999952 -0.00983008 -0.0947472 0.995501 82.7239 26.9863)" fill="#6B9FF2"/>
<path d="M342.577 35.9429L343.654 24.6316L345.969 24.6088L348.692 30.6061L349.61 33.0371L349.686 33.0364C349.681 32.4467 349.676 31.8012 349.671 31.0997C349.667 30.3982 349.695 29.7269 349.756 29.0858L350.186 24.5674L352.333 24.5463L351.256 35.8576L348.941 35.8803L346.25 29.8675L345.331 27.4517L345.254 27.4525C345.247 28.0626 345.247 28.7082 345.254 29.3893C345.261 30.0704 345.233 30.7366 345.171 31.3879L344.739 35.9216L342.577 35.9429Z" fill="#689DF2" fill-opacity="0.8"/>
<path d="M356.316 35.8078L357.213 26.3894L354.023 26.4207L354.204 24.5279L362.867 24.4427L362.687 26.3356L359.482 26.3671L358.586 35.7855L356.316 35.8078Z" fill="#689DF2" fill-opacity="0.8"/>
<path d="M367.995 35.9065C367.29 35.9134 366.676 35.8229 366.152 35.6349C365.63 35.4367 365.195 35.1258 364.847 34.7022C364.509 34.2785 364.275 33.7317 364.145 33.062C364.015 32.3922 363.994 31.5893 364.083 30.653L364.676 24.4249L366.93 24.4028L366.318 30.8293C366.244 31.6129 366.272 32.2328 366.402 32.689C366.532 33.1453 366.746 33.4736 367.043 33.674C367.352 33.8642 367.731 33.957 368.181 33.9526C368.631 33.9482 369.029 33.8477 369.374 33.6511C369.721 33.4444 370.002 33.1112 370.22 32.6515C370.447 32.1918 370.598 31.5701 370.673 30.7865L371.285 24.36L373.462 24.3386L372.869 30.5666C372.78 31.5029 372.607 32.3078 372.348 32.9814C372.09 33.6549 371.752 34.2073 371.333 34.6384C370.914 35.0695 370.424 35.3895 369.863 35.5984C369.303 35.7971 368.68 35.8998 367.995 35.9065Z" fill="#689DF2" fill-opacity="0.8"/>
<rect width="326.772" height="182.256" rx="12" transform="matrix(0.999952 -0.00983008 -0.0947472 0.995501 44.4517 51.2322)" fill="white" fill-opacity="0.4"/>
<path d="M130.642 80.242C136.864 80.1809 141.531 84.8448 141.559 90.8749L192.002 90.8753C193.275 84.9451 198.775 80.3028 204.916 80.2423C211.219 80.1803 215.927 84.9681 215.832 91.1131L266.226 91.113C267.402 85.0696 272.967 80.3038 279.189 80.2425C285.817 80.1774 290.68 85.473 290.052 92.0706C289.424 98.6681 283.543 104.069 276.916 104.135C270.724 104.195 266.073 99.5766 266 93.5891L215.538 93.5888C214.23 99.4772 208.753 104.074 202.642 104.134C196.369 104.196 191.676 99.4537 191.726 93.3509L141.315 93.3511C140.102 99.353 134.561 104.073 128.369 104.134C121.742 104.199 116.878 98.9035 117.506 92.306C118.134 85.7086 124.016 80.3074 130.642 80.242Z" fill="#689DF2" fill-opacity="0.4"/>
<rect width="278.772" height="14" rx="7" transform="matrix(0.999952 -0.00983008 -0.0947472 0.995501 59.522 144.808)" fill="#689DF2" fill-opacity="0.4"/>
<rect width="278.772" height="14" rx="7" transform="matrix(0.999952 -0.00983008 -0.0947472 0.995501 57.4375 166.709)" fill="#689DF2" fill-opacity="0.4"/>
<rect width="278.772" height="14" rx="7" transform="matrix(0.999952 -0.00983008 -0.0947472 0.995501 55.3531 188.61)" fill="#689DF2" fill-opacity="0.4"/>
</g>
<defs>
<filter id="filter0_d_1392_1056" x="0.910645" y="0" width="430.844" height="298.797" filterUnits="userSpaceOnUse" color-interpolation-filters="sRGB">
<feFlood flood-opacity="0" result="BackgroundImageFix"/>
<feColorMatrix in="SourceAlpha" type="matrix" values="0 0 0 0 0 0 0 0 0 0 0 0 0 0 0 0 0 0 127 0" result="hardAlpha"/>
<feOffset dx="20" dy="30"/>
<feGaussianBlur stdDeviation="6"/>
<feComposite in2="hardAlpha" operator="out"/>
<feColorMatrix type="matrix" values="0 0 0 0 0.12549 0 0 0 0 0.168627 0 0 0 0 0.388235 0 0 0 0.1 0"/>
<feBlend mode="normal" in2="BackgroundImageFix" result="effect1_dropShadow_1392_1056"/>
<feBlend mode="normal" in="SourceGraphic" in2="effect1_dropShadow_1392_1056" result="shape"/>
</filter>
<linearGradient id="paint0_linear_1392_1056" x1="187.386" y1="0" x2="187.386" y2="254.256" gradientUnits="userSpaceOnUse">
<stop stop-color="#A0C0F3"/>
<stop offset="1" stop-color="#D6E3F9"/>
</linearGradient>
<linearGradient id="paint1_linear_1392_1056" x1="343.681" y1="223.383" x2="392.748" y2="267.491" gradientUnits="userSpaceOnUse">
<stop stop-color="white" stop-opacity="0"/>
<stop offset="1" stop-color="#DDE8FC"/>
</linearGradient>
<linearGradient id="paint2_linear_1392_1056" x1="-21.6967" y1="-3.48964" x2="78.0729" y2="47.0093" gradientUnits="userSpaceOnUse">
<stop stop-color="#DDE8FC"/>
<stop offset="1" stop-color="white" stop-opacity="0"/>
</linearGradient>
<linearGradient id="paint3_linear_1392_1056" x1="181.608" y1="-1.69984" x2="181.881" y2="251.595" gradientUnits="userSpaceOnUse">
<stop stop-color="white"/>
<stop offset="0.5" stop-color="#DDE8FC"/>
<stop offset="1" stop-color="white"/>
</linearGradient>
</defs>
</svg>
