<svg width="493" height="334" viewBox="0 0 493 334" fill="none" xmlns="http://www.w3.org/2000/svg">
<path d="M213.595 230.898L202.298 262H197.681L210.689 227.875H213.666L213.595 230.898ZM223.064 262L211.744 230.898L211.673 227.875H214.65L227.705 262H223.064ZM222.478 249.367V253.07H203.306V249.367H222.478ZM241.509 262H234.384L234.431 258.32H241.509C243.947 258.32 245.978 257.812 247.603 256.797C249.228 255.766 250.447 254.328 251.259 252.484C252.088 250.625 252.502 248.453 252.502 245.969V243.883C252.502 241.93 252.267 240.195 251.798 238.68C251.33 237.148 250.642 235.859 249.736 234.812C248.83 233.75 247.72 232.945 246.408 232.398C245.111 231.852 243.619 231.578 241.931 231.578H234.244V227.875H241.931C244.166 227.875 246.205 228.25 248.048 229C249.892 229.734 251.478 230.805 252.806 232.211C254.15 233.602 255.181 235.289 255.9 237.273C256.619 239.242 256.978 241.461 256.978 243.93V245.969C256.978 248.438 256.619 250.664 255.9 252.648C255.181 254.617 254.142 256.297 252.783 257.688C251.439 259.078 249.814 260.148 247.908 260.898C246.017 261.633 243.884 262 241.509 262ZM236.798 227.875V262H232.275V227.875H236.798ZM265.205 227.875H269.588L280.767 255.695L291.923 227.875H296.33L282.455 262H279.033L265.205 227.875ZM263.775 227.875H267.642L268.275 248.688V262H263.775V227.875ZM293.869 227.875H297.736V262H293.236V248.688L293.869 227.875ZM310.533 227.875V262H306.009V227.875H310.533ZM336.947 253.375C336.947 252.578 336.822 251.875 336.572 251.266C336.338 250.641 335.916 250.078 335.306 249.578C334.713 249.078 333.884 248.602 332.822 248.148C331.775 247.695 330.447 247.234 328.838 246.766C327.15 246.266 325.627 245.711 324.267 245.102C322.908 244.477 321.744 243.766 320.775 242.969C319.806 242.172 319.064 241.258 318.548 240.227C318.033 239.195 317.775 238.016 317.775 236.687C317.775 235.359 318.048 234.133 318.595 233.008C319.142 231.883 319.923 230.906 320.939 230.078C321.97 229.234 323.197 228.578 324.619 228.109C326.041 227.641 327.627 227.406 329.377 227.406C331.939 227.406 334.111 227.898 335.892 228.883C337.689 229.852 339.056 231.125 339.994 232.703C340.931 234.266 341.4 235.937 341.4 237.719H336.9C336.9 236.437 336.627 235.305 336.08 234.32C335.533 233.32 334.705 232.539 333.595 231.977C332.486 231.398 331.08 231.109 329.377 231.109C327.767 231.109 326.439 231.352 325.392 231.836C324.345 232.32 323.564 232.977 323.048 233.805C322.548 234.633 322.298 235.578 322.298 236.641C322.298 237.359 322.447 238.016 322.744 238.609C323.056 239.187 323.533 239.727 324.173 240.227C324.83 240.727 325.658 241.187 326.658 241.609C327.673 242.031 328.884 242.437 330.291 242.828C332.228 243.375 333.9 243.984 335.306 244.656C336.713 245.328 337.869 246.086 338.775 246.93C339.697 247.758 340.377 248.703 340.814 249.766C341.267 250.812 341.494 252 341.494 253.328C341.494 254.719 341.213 255.977 340.65 257.102C340.088 258.227 339.283 259.188 338.236 259.984C337.189 260.781 335.931 261.398 334.463 261.836C333.009 262.258 331.384 262.469 329.588 262.469C328.009 262.469 326.455 262.25 324.923 261.812C323.408 261.375 322.025 260.719 320.775 259.844C319.541 258.969 318.548 257.891 317.798 256.609C317.064 255.312 316.697 253.812 316.697 252.109H321.197C321.197 253.281 321.423 254.289 321.877 255.133C322.33 255.961 322.947 256.648 323.728 257.195C324.525 257.742 325.423 258.148 326.423 258.414C327.439 258.664 328.494 258.789 329.588 258.789C331.166 258.789 332.502 258.57 333.595 258.133C334.689 257.695 335.517 257.07 336.08 256.258C336.658 255.445 336.947 254.484 336.947 253.375ZM365.447 253.375C365.447 252.578 365.322 251.875 365.072 251.266C364.838 250.641 364.416 250.078 363.806 249.578C363.213 249.078 362.384 248.602 361.322 248.148C360.275 247.695 358.947 247.234 357.338 246.766C355.65 246.266 354.127 245.711 352.767 245.102C351.408 244.477 350.244 243.766 349.275 242.969C348.306 242.172 347.564 241.258 347.048 240.227C346.533 239.195 346.275 238.016 346.275 236.687C346.275 235.359 346.548 234.133 347.095 233.008C347.642 231.883 348.423 230.906 349.439 230.078C350.47 229.234 351.697 228.578 353.119 228.109C354.541 227.641 356.127 227.406 357.877 227.406C360.439 227.406 362.611 227.898 364.392 228.883C366.189 229.852 367.556 231.125 368.494 232.703C369.431 234.266 369.9 235.937 369.9 237.719H365.4C365.4 236.437 365.127 235.305 364.58 234.32C364.033 233.32 363.205 232.539 362.095 231.977C360.986 231.398 359.58 231.109 357.877 231.109C356.267 231.109 354.939 231.352 353.892 231.836C352.845 232.32 352.064 232.977 351.548 233.805C351.048 234.633 350.798 235.578 350.798 236.641C350.798 237.359 350.947 238.016 351.244 238.609C351.556 239.187 352.033 239.727 352.673 240.227C353.33 240.727 354.158 241.187 355.158 241.609C356.173 242.031 357.384 242.437 358.791 242.828C360.728 243.375 362.4 243.984 363.806 244.656C365.213 245.328 366.369 246.086 367.275 246.93C368.197 247.758 368.877 248.703 369.314 249.766C369.767 250.812 369.994 252 369.994 253.328C369.994 254.719 369.713 255.977 369.15 257.102C368.588 258.227 367.783 259.188 366.736 259.984C365.689 260.781 364.431 261.398 362.963 261.836C361.509 262.258 359.884 262.469 358.088 262.469C356.509 262.469 354.955 262.25 353.423 261.812C351.908 261.375 350.525 260.719 349.275 259.844C348.041 258.969 347.048 257.891 346.298 256.609C345.564 255.312 345.197 253.812 345.197 252.109H349.697C349.697 253.281 349.923 254.289 350.377 255.133C350.83 255.961 351.447 256.648 352.228 257.195C353.025 257.742 353.923 258.148 354.923 258.414C355.939 258.664 356.994 258.789 358.088 258.789C359.666 258.789 361.002 258.57 362.095 258.133C363.189 257.695 364.017 257.07 364.58 256.258C365.158 255.445 365.447 254.484 365.447 253.375ZM380.611 227.875V262H376.088V227.875H380.611ZM415.111 243.859V246.016C415.111 248.578 414.791 250.875 414.15 252.906C413.509 254.937 412.588 256.664 411.384 258.086C410.181 259.508 408.736 260.594 407.048 261.344C405.377 262.094 403.502 262.469 401.423 262.469C399.408 262.469 397.556 262.094 395.869 261.344C394.197 260.594 392.744 259.508 391.509 258.086C390.291 256.664 389.345 254.937 388.673 252.906C388.002 250.875 387.666 248.578 387.666 246.016V243.859C387.666 241.297 387.994 239.008 388.65 236.992C389.322 234.961 390.267 233.234 391.486 231.812C392.705 230.375 394.15 229.281 395.822 228.531C397.509 227.781 399.361 227.406 401.377 227.406C403.455 227.406 405.33 227.781 407.002 228.531C408.689 229.281 410.134 230.375 411.338 231.812C412.556 233.234 413.486 234.961 414.127 236.992C414.783 239.008 415.111 241.297 415.111 243.859ZM410.634 246.016V243.812C410.634 241.781 410.423 239.984 410.002 238.422C409.595 236.859 408.994 235.547 408.197 234.484C407.4 233.422 406.423 232.617 405.267 232.07C404.127 231.523 402.83 231.25 401.377 231.25C399.97 231.25 398.697 231.523 397.556 232.07C396.431 232.617 395.463 233.422 394.65 234.484C393.853 235.547 393.236 236.859 392.798 238.422C392.361 239.984 392.142 241.781 392.142 243.812V246.016C392.142 248.062 392.361 249.875 392.798 251.453C393.236 253.016 393.861 254.336 394.673 255.414C395.502 256.477 396.478 257.281 397.603 257.828C398.744 258.375 400.017 258.648 401.423 258.648C402.892 258.648 404.197 258.375 405.338 257.828C406.478 257.281 407.439 256.477 408.22 255.414C409.017 254.336 409.619 253.016 410.025 251.453C410.431 249.875 410.634 248.062 410.634 246.016ZM448.134 227.875V262H443.588L426.408 235.68V262H421.884V227.875H426.408L443.658 254.266V227.875H448.134Z" fill="url(#paint0_linear_797_2716)" fill-opacity="0.15"/>
<path d="M273.213 8.875V43H268.666L251.486 16.6797V43H246.963V8.875L251.486 8.875L268.736 35.2656V8.875L273.213 8.875ZM294.283 11.8984L282.986 43H278.369L291.377 8.875L294.353 8.875L294.283 11.8984ZM303.752 43L292.431 11.8984L292.361 8.875L295.338 8.875L308.392 43H303.752ZM303.166 30.3672V34.0703H283.994V30.3672L303.166 30.3672ZM322.525 8.875V43H318.072V8.875H322.525ZM333.494 8.875V12.5781L307.127 12.5781V8.875L333.494 8.875ZM343.408 8.875V43H338.884V8.875H343.408ZM377.908 24.8594V27.0156C377.908 29.5781 377.588 31.875 376.947 33.9062C376.306 35.9375 375.384 37.6641 374.181 39.0859C372.978 40.5078 371.533 41.5937 369.845 42.3437C368.173 43.0937 366.298 43.4687 364.22 43.4687C362.205 43.4687 360.353 43.0937 358.666 42.3437C356.994 41.5937 355.541 40.5078 354.306 39.0859C353.088 37.6641 352.142 35.9375 351.47 33.9062C350.798 31.875 350.463 29.5781 350.463 27.0156V24.8594C350.463 22.2969 350.791 20.0078 351.447 17.9922C352.119 15.9609 353.064 14.2344 354.283 12.8125C355.502 11.375 356.947 10.2812 358.619 9.53125C360.306 8.78125 362.158 8.40625 364.173 8.40625C366.252 8.40625 368.127 8.78125 369.798 9.53125C371.486 10.2812 372.931 11.375 374.134 12.8125C375.353 14.2344 376.283 15.9609 376.923 17.9922C377.58 20.0078 377.908 22.2969 377.908 24.8594ZM373.431 27.0156V24.8125C373.431 22.7812 373.22 20.9844 372.798 19.4219C372.392 17.8594 371.791 16.5469 370.994 15.4844C370.197 14.4219 369.22 13.6172 368.064 13.0703C366.923 12.5234 365.627 12.25 364.173 12.25C362.767 12.25 361.494 12.5234 360.353 13.0703C359.228 13.6172 358.259 14.4219 357.447 15.4844C356.65 16.5469 356.033 17.8594 355.595 19.4219C355.158 20.9844 354.939 22.7812 354.939 24.8125V27.0156C354.939 29.0625 355.158 30.875 355.595 32.4531C356.033 34.0156 356.658 35.3359 357.47 36.4141C358.298 37.4766 359.275 38.2812 360.4 38.8281C361.541 39.375 362.814 39.6484 364.22 39.6484C365.689 39.6484 366.994 39.375 368.134 38.8281C369.275 38.2812 370.236 37.4766 371.017 36.4141C371.814 35.3359 372.416 34.0156 372.822 32.4531C373.228 30.875 373.431 29.0625 373.431 27.0156ZM410.931 8.875V43H406.384L389.205 16.6797V43H384.681V8.875H389.205L406.455 35.2656V8.875H410.931ZM432.002 11.8984L420.705 43H416.088L429.095 8.875H432.072L432.002 11.8984ZM441.47 43L430.15 11.8984L430.08 8.875H433.056L446.111 43L441.47 43ZM440.884 30.3672V34.0703H421.713V30.3672L440.884 30.3672ZM471.377 39.3203V43H454.314V39.3203H471.377ZM455.205 8.875V43H450.681V8.875H455.205Z" fill="url(#paint1_linear_797_2716)" fill-opacity="0.2"/>
<path d="M206.572 81.875V116H202.119V81.875H206.572ZM217.541 81.875V85.5781H191.173V81.875H217.541ZM233.361 84.8984L222.064 116H217.447L230.455 81.875H233.431L233.361 84.8984ZM242.83 116L231.509 84.8984L231.439 81.875H234.416L247.47 116H242.83ZM242.244 103.367V107.07H223.072V103.367H242.244ZM256.892 81.875V116L252.369 116V81.875H256.892ZM274.095 105.687L280.869 81.875H284.15L282.252 91.1328L274.963 116H271.705L274.095 105.687ZM267.088 81.875L272.478 105.219L274.095 116H270.861L262.588 81.875H267.088ZM292.916 105.195L298.189 81.875H302.713L294.463 116H291.228L292.916 105.195ZM284.642 81.875L291.228 105.687L293.619 116H290.361L283.33 91.1328L281.408 81.875H284.642ZM319.33 84.8984L308.033 116H303.416L316.423 81.875L319.4 81.875L319.33 84.8984ZM328.798 116L317.478 84.8984L317.408 81.875H320.384L333.439 116H328.798ZM328.213 103.367V107.07H309.041V103.367L328.213 103.367ZM364.259 81.875V116H359.713L342.533 89.6797V116H338.009V81.875H342.533L359.783 108.266V81.875H364.259Z" fill="url(#paint2_linear_797_2716)" fill-opacity="0.2"/>
<path d="M251.486 154.875H255.986V177.961C255.986 180.523 255.416 182.656 254.275 184.359C253.134 186.062 251.619 187.344 249.728 188.203C247.853 189.047 245.814 189.469 243.611 189.469C241.298 189.469 239.205 189.047 237.33 188.203C235.47 187.344 233.994 186.062 232.9 184.359C231.822 182.656 231.283 180.523 231.283 177.961V154.875H235.759V177.961C235.759 179.742 236.088 181.211 236.744 182.367C237.4 183.523 238.314 184.383 239.486 184.945C240.673 185.508 242.048 185.789 243.611 185.789C245.189 185.789 246.564 185.508 247.736 184.945C248.923 184.383 249.845 183.523 250.502 182.367C251.158 181.211 251.486 179.742 251.486 177.961V154.875ZM289.338 154.875V189H284.791L267.611 162.68V189H263.088V154.875H267.611L284.861 181.266V154.875H289.338ZM302.205 154.875V189H297.681V154.875H302.205ZM321.447 183.82L331.502 154.875H336.4L323.767 189H320.275L321.447 183.82ZM312.048 154.875L322.009 183.82L323.252 189H319.759L307.15 154.875H312.048ZM362.673 185.32V189H344.603V185.32H362.673ZM345.517 154.875V189H340.994V154.875H345.517ZM360.283 169.547V173.227H344.603V169.547H360.283ZM362.439 154.875V158.578H344.603V154.875H362.439ZM368.275 154.875H379.572C382.134 154.875 384.298 155.266 386.064 156.047C387.845 156.828 389.197 157.984 390.119 159.516C391.056 161.031 391.525 162.898 391.525 165.117C391.525 166.68 391.205 168.109 390.564 169.406C389.939 170.687 389.033 171.781 387.845 172.687C386.673 173.578 385.267 174.242 383.627 174.68L382.361 175.172H371.744L371.697 171.492H379.713C381.338 171.492 382.689 171.211 383.767 170.648C384.845 170.07 385.658 169.297 386.205 168.328C386.752 167.359 387.025 166.289 387.025 165.117C387.025 163.805 386.767 162.656 386.252 161.672C385.736 160.687 384.923 159.93 383.814 159.398C382.72 158.852 381.306 158.578 379.572 158.578H372.798V189H368.275V154.875ZM388.22 189L379.923 173.531L384.634 173.508L393.048 188.719V189H388.22ZM416.041 180.375C416.041 179.578 415.916 178.875 415.666 178.266C415.431 177.641 415.009 177.078 414.4 176.578C413.806 176.078 412.978 175.602 411.916 175.148C410.869 174.695 409.541 174.234 407.931 173.766C406.244 173.266 404.72 172.711 403.361 172.102C402.002 171.477 400.838 170.766 399.869 169.969C398.9 169.172 398.158 168.258 397.642 167.227C397.127 166.195 396.869 165.016 396.869 163.687C396.869 162.359 397.142 161.133 397.689 160.008C398.236 158.883 399.017 157.906 400.033 157.078C401.064 156.234 402.291 155.578 403.713 155.109C405.134 154.641 406.72 154.406 408.47 154.406C411.033 154.406 413.205 154.898 414.986 155.883C416.783 156.852 418.15 158.125 419.088 159.703C420.025 161.266 420.494 162.937 420.494 164.719H415.994C415.994 163.437 415.72 162.305 415.173 161.32C414.627 160.32 413.798 159.539 412.689 158.977C411.58 158.398 410.173 158.109 408.47 158.109C406.861 158.109 405.533 158.352 404.486 158.836C403.439 159.32 402.658 159.977 402.142 160.805C401.642 161.633 401.392 162.578 401.392 163.641C401.392 164.359 401.541 165.016 401.838 165.609C402.15 166.187 402.627 166.727 403.267 167.227C403.923 167.727 404.752 168.187 405.752 168.609C406.767 169.031 407.978 169.437 409.384 169.828C411.322 170.375 412.994 170.984 414.4 171.656C415.806 172.328 416.963 173.086 417.869 173.93C418.791 174.758 419.47 175.703 419.908 176.766C420.361 177.812 420.588 179 420.588 180.328C420.588 181.719 420.306 182.977 419.744 184.102C419.181 185.227 418.377 186.187 417.33 186.984C416.283 187.781 415.025 188.398 413.556 188.836C412.103 189.258 410.478 189.469 408.681 189.469C407.103 189.469 405.548 189.25 404.017 188.812C402.502 188.375 401.119 187.719 399.869 186.844C398.634 185.969 397.642 184.891 396.892 183.609C396.158 182.312 395.791 180.812 395.791 179.109H400.291C400.291 180.281 400.517 181.289 400.97 182.133C401.423 182.961 402.041 183.648 402.822 184.195C403.619 184.742 404.517 185.148 405.517 185.414C406.533 185.664 407.588 185.789 408.681 185.789C410.259 185.789 411.595 185.57 412.689 185.133C413.783 184.695 414.611 184.07 415.173 183.258C415.752 182.445 416.041 181.484 416.041 180.375ZM431.205 154.875V189H426.681V154.875H431.205ZM451.338 154.875V189H446.884V154.875H451.338ZM462.306 154.875V158.578H435.939V154.875H462.306ZM469.314 154.875L478.173 172.008L487.056 154.875L492.189 154.875L480.423 176.25V189H475.9V176.25L464.134 154.875H469.314Z" fill="url(#paint3_linear_797_2716)" fill-opacity="0.2"/>
<g filter="url(#filter0_d_797_2716)">
<rect width="374.772" height="254.256" rx="12" transform="matrix(0.999952 -0.00983008 -0.0947472 0.995501 73.001 39)" fill="url(#paint4_linear_797_2716)" shape-rendering="crispEdges"/>
<rect width="374.772" height="254.256" rx="12" transform="matrix(0.999952 -0.00983008 -0.0947472 0.995501 73.001 39)" fill="white" fill-opacity="0.2" shape-rendering="crispEdges"/>
<rect x="1.35781" y="1.47851" width="371.772" height="251.256" rx="10.5" transform="matrix(0.999952 -0.00983008 -0.0947472 0.995501 73.1411 39.02)" stroke="#689DF2" stroke-opacity="0.9" stroke-width="3" shape-rendering="crispEdges"/>
<rect x="1.35781" y="1.47851" width="371.772" height="251.256" rx="10.5" transform="matrix(0.999952 -0.00983008 -0.0947472 0.995501 73.1411 39.02)" stroke="url(#paint5_linear_797_2716)" stroke-width="3" shape-rendering="crispEdges"/>
<rect x="1.35781" y="1.47851" width="371.772" height="251.256" rx="10.5" transform="matrix(0.999952 -0.00983008 -0.0947472 0.995501 73.1411 39.02)" stroke="url(#paint6_linear_797_2716)" stroke-width="3" shape-rendering="crispEdges"/>
<rect x="1.35781" y="1.47851" width="371.772" height="251.256" rx="10.5" transform="matrix(0.999952 -0.00983008 -0.0947472 0.995501 73.1411 39.02)" stroke="url(#paint7_linear_797_2716)" stroke-opacity="0.3" stroke-width="3" shape-rendering="crispEdges"/>
<ellipse cx="6" cy="6" rx="6" ry="6" transform="matrix(0.999952 -0.00983008 -0.0947472 0.995501 94.7259 62.6561)" fill="#6B9FF2"/>
<ellipse cx="6" cy="6" rx="6" ry="6" transform="matrix(0.999952 -0.00983008 -0.0947472 0.995501 112.725 62.4791)" fill="#6B9FF2"/>
<ellipse cx="6" cy="6" rx="6" ry="6" transform="matrix(0.999952 -0.00983008 -0.0947472 0.995501 130.724 62.3022)" fill="#6B9FF2"/>
<path d="M390.578 71.2588L391.654 59.9475L393.97 59.9247L396.692 65.922L397.61 68.353L397.687 68.3523C397.681 67.7627 397.677 67.1171 397.672 66.4156C397.667 65.7141 397.695 65.0428 397.756 64.4017L398.186 59.8833L400.333 59.8622L399.256 71.1735L396.941 71.1962L394.25 65.1834L393.331 62.7676L393.255 62.7684C393.248 63.3785 393.248 64.0241 393.254 64.7052C393.261 65.3863 393.233 66.0526 393.171 66.7039L392.74 71.2375L390.578 71.2588Z" fill="#689DF2" fill-opacity="0.8"/>
<path d="M404.317 71.1237L405.213 61.7053L402.024 61.7366L402.204 59.8438L410.867 59.7586L410.687 61.6515L407.482 61.683L406.586 71.1014L404.317 71.1237Z" fill="#689DF2" fill-opacity="0.8"/>
<path d="M415.995 71.2224C415.29 71.2294 414.676 71.1388 414.152 70.9508C413.63 70.7526 413.195 70.4417 412.847 70.0181C412.51 69.5944 412.276 69.0477 412.145 68.3779C412.015 67.7082 411.995 66.9052 412.084 65.9689L412.676 59.7409L414.93 59.7187L414.319 66.1452C414.244 66.9288 414.272 67.5487 414.402 68.005C414.532 68.4612 414.746 68.7895 415.044 68.9899C415.352 69.1801 415.732 69.2729 416.181 69.2685C416.631 69.2641 417.029 69.1636 417.374 68.967C417.721 68.7603 418.003 68.4271 418.22 67.9674C418.448 67.5077 418.599 66.886 418.673 66.1024L419.285 59.6759L421.462 59.6545L420.87 65.8826C420.78 66.8188 420.607 67.6237 420.349 68.2973C420.091 68.9708 419.752 69.5232 419.333 69.9543C418.914 70.3855 418.424 70.7054 417.863 70.9143C417.303 71.113 416.68 71.2157 415.995 71.2224Z" fill="#689DF2" fill-opacity="0.8"/>
<rect width="326.772" height="182.256" rx="12" transform="matrix(0.999952 -0.00983008 -0.0947472 0.995501 92.452 86.5482)" fill="white" fill-opacity="0.4"/>
<path d="M178.643 115.558C184.864 115.497 189.531 120.161 189.559 126.191L240.002 126.191C241.276 120.261 246.776 115.619 252.916 115.558C259.22 115.496 263.927 120.284 263.832 126.429L314.227 126.429C315.402 120.386 320.967 115.62 327.19 115.558C333.817 115.493 338.68 120.789 338.052 127.387C337.424 133.984 331.543 139.385 324.916 139.451C318.725 139.511 314.073 134.893 314.001 128.905L263.539 128.905C262.23 134.793 256.753 139.39 250.642 139.45C244.369 139.512 239.677 134.77 239.726 128.667L189.315 128.667C188.103 134.669 182.562 139.389 176.369 139.45C169.742 139.515 164.878 134.219 165.506 127.622C166.134 121.025 172.016 115.623 178.643 115.558Z" fill="#689DF2" fill-opacity="0.4"/>
<rect width="278.772" height="14" rx="7" transform="matrix(0.999952 -0.00983008 -0.0947472 0.995501 107.522 180.124)" fill="#689DF2" fill-opacity="0.4"/>
<rect width="278.772" height="14" rx="7" transform="matrix(0.999952 -0.00983008 -0.0947472 0.995501 105.438 202.025)" fill="#689DF2" fill-opacity="0.4"/>
<rect width="278.772" height="14" rx="7" transform="matrix(0.999952 -0.00983008 -0.0947472 0.995501 103.353 223.926)" fill="#689DF2" fill-opacity="0.4"/>
</g>
<path d="M372.138 283.014C371.229 279.443 375.06 275.994 378.516 277.271L420.429 292.757C423.978 294.069 423.826 299.106 420.181 300.946L403.494 309.373C402.666 309.791 401.957 310.429 401.455 311.209L391.328 326.927C389.117 330.359 384.091 329.984 383.158 326.317L372.138 283.014Z" fill="#253BA8" fill-opacity="0.7"/>
<path d="M483.844 108.196C486.988 107.381 489.942 109.186 490.441 112.227L491.346 117.735C491.846 120.777 489.703 123.903 486.559 124.718L414.449 143.41L399.688 141.263C397.231 140.905 396.713 137.75 398.856 136.2L411.734 126.888L483.844 108.196Z" fill="#4579EC" fill-opacity="0.7"/>
<g clip-path="url(#clip0_797_2716)">
<path d="M55.9309 83.241L29.0074 92.4991C27.4206 93.0448 26.1155 94.1984 25.3793 95.7063C24.6431 97.2141 24.5361 98.9527 25.0817 100.539L41.5405 148.404C42.0861 149.99 43.2398 151.295 44.7476 152.032C46.2555 152.768 47.9941 152.875 49.5808 152.329L85.4789 139.985C87.0657 139.439 88.3707 138.286 89.1069 136.778C89.8431 135.27 89.9502 133.532 89.4045 131.945L76.0318 93.0552L55.9309 83.241Z" fill="#689DF2" fill-opacity="0.7"/>
<path d="M52.9394 84.2697L57.0541 96.2357C57.5997 97.8225 58.7534 99.1276 60.2612 99.8638C61.7691 100.6 63.5077 100.707 65.0944 100.161L77.0605 96.0467" fill="#4385EF" fill-opacity="0.7"/>
</g>
<path d="M3.17635 312.251C23.0081 318.269 39.7136 306.985 47.5249 295.643M47.5249 295.643C52.0077 289.134 53.5611 282.605 51.0948 279.316C44.331 270.296 29.1774 280.672 34.0793 290.144C35.8899 293.642 41.1804 295.714 47.5249 295.643ZM47.5249 295.643C58.3565 295.523 72.26 289.16 77.1626 273" stroke="#2F5BE1" stroke-opacity="0.4" stroke-width="6" stroke-linecap="round"/>
<defs>
<filter id="filter0_d_797_2716" x="48.9109" y="35.3159" width="430.844" height="298.797" filterUnits="userSpaceOnUse" color-interpolation-filters="sRGB">
<feFlood flood-opacity="0" result="BackgroundImageFix"/>
<feColorMatrix in="SourceAlpha" type="matrix" values="0 0 0 0 0 0 0 0 0 0 0 0 0 0 0 0 0 0 127 0" result="hardAlpha"/>
<feOffset dx="20" dy="30"/>
<feGaussianBlur stdDeviation="6"/>
<feComposite in2="hardAlpha" operator="out"/>
<feColorMatrix type="matrix" values="0 0 0 0 0.12549 0 0 0 0 0.168627 0 0 0 0 0.388235 0 0 0 0.1 0"/>
<feBlend mode="normal" in2="BackgroundImageFix" result="effect1_dropShadow_797_2716"/>
<feBlend mode="normal" in="SourceGraphic" in2="effect1_dropShadow_797_2716" result="shape"/>
</filter>
<linearGradient id="paint0_linear_797_2716" x1="219.262" y1="245.5" x2="453.002" y2="245.5" gradientUnits="userSpaceOnUse">
<stop stop-color="white" stop-opacity="0.3"/>
<stop offset="0.5" stop-color="white"/>
<stop offset="1" stop-color="white" stop-opacity="0.3"/>
</linearGradient>
<linearGradient id="paint1_linear_797_2716" x1="263.002" y1="26.5" x2="473.002" y2="26.5" gradientUnits="userSpaceOnUse">
<stop stop-color="white" stop-opacity="0.3"/>
<stop offset="0.5" stop-color="white"/>
<stop offset="1" stop-color="white" stop-opacity="0.3"/>
</linearGradient>
<linearGradient id="paint2_linear_797_2716" x1="205.567" y1="99.5" x2="369.002" y2="99.5" gradientUnits="userSpaceOnUse">
<stop stop-color="white" stop-opacity="0.3"/>
<stop offset="0.5" stop-color="white"/>
<stop offset="1" stop-color="white" stop-opacity="0.3"/>
</linearGradient>
<linearGradient id="paint3_linear_797_2716" x1="251.045" y1="172.5" x2="493.002" y2="172.5" gradientUnits="userSpaceOnUse">
<stop stop-color="white" stop-opacity="0.3"/>
<stop offset="0.5" stop-color="white"/>
<stop offset="1" stop-color="white" stop-opacity="0.3"/>
</linearGradient>
<linearGradient id="paint4_linear_797_2716" x1="187.386" y1="0" x2="187.386" y2="254.256" gradientUnits="userSpaceOnUse">
<stop stop-color="#689DF2" stop-opacity="0.6"/>
<stop offset="1" stop-color="#C2D7FB" stop-opacity="0.6"/>
</linearGradient>
<linearGradient id="paint5_linear_797_2716" x1="323.064" y1="206.459" x2="379.627" y2="216.993" gradientUnits="userSpaceOnUse">
<stop stop-color="white" stop-opacity="0"/>
<stop offset="1" stop-color="#DDE8FC"/>
</linearGradient>
<linearGradient id="paint6_linear_797_2716" x1="-21.6967" y1="-3.48964" x2="78.0729" y2="47.0093" gradientUnits="userSpaceOnUse">
<stop stop-color="#DDE8FC"/>
<stop offset="1" stop-color="white" stop-opacity="0"/>
</linearGradient>
<linearGradient id="paint7_linear_797_2716" x1="181.608" y1="-1.69984" x2="181.881" y2="251.595" gradientUnits="userSpaceOnUse">
<stop stop-color="white"/>
<stop offset="0.5" stop-color="#DDE8FC"/>
<stop offset="1" stop-color="white"/>
</linearGradient>
<clipPath id="clip0_797_2716">
<path d="M13.5535 105.927C11.0392 98.6156 14.9283 90.65 22.2401 88.1357L67.5579 72.5525C74.8697 70.0382 82.8353 73.9274 85.3495 81.2391L105.485 139.796L33.6892 164.484L13.5535 105.927Z" fill="white"/>
</clipPath>
</defs>
</svg>
