<svg width="16" height="17" viewBox="0 0 16 17" fill="none" xmlns="http://www.w3.org/2000/svg">
<path d="M3.34375 16.0391C2.29688 16.0391 1.48958 15.7552 0.921875 15.1875C0.359375 14.625 0.078125 13.8203 0.078125 12.7734V5.46875C0.078125 4.41667 0.359375 3.60938 0.921875 3.04688C1.48958 2.47917 2.29688 2.19531 3.34375 2.19531L10.6953 2.20312C10.8047 2.20312 10.9115 2.20833 11.0156 2.21875C11.1198 2.22917 11.2188 2.24219 11.3125 2.25781L10.0938 3.49219C10.0052 3.48177 9.91406 3.47396 9.82031 3.46875C9.72656 3.45833 9.63281 3.45312 9.53906 3.45312H3.34375C2.70312 3.45312 2.20833 3.6276 1.85938 3.97656C1.51042 4.32552 1.33594 4.82031 1.33594 5.46094V12.7734C1.33594 13.4193 1.51042 13.9167 1.85938 14.2656C2.20833 14.6094 2.70312 14.7812 3.34375 14.7812H10.6562C11.2969 14.7812 11.7917 14.6094 12.1406 14.2656C12.4896 13.9167 12.6641 13.4193 12.6641 12.7734V6.46094C12.6641 6.38802 12.6615 6.32031 12.6562 6.25781C12.651 6.19531 12.6432 6.13281 12.6328 6.07031L13.8594 4.85156C13.8802 4.94531 13.8958 5.04427 13.9062 5.14844C13.9167 5.2526 13.9219 5.35938 13.9219 5.46875V12.7734C13.9219 13.8203 13.6406 14.625 13.0781 15.1875C12.5156 15.7552 11.7083 16.0391 10.6562 16.0391H3.34375ZM5.375 10.9766C5.30208 11.0078 5.23438 10.9922 5.17188 10.9297C5.11458 10.862 5.10156 10.7943 5.13281 10.7266L5.83594 9.25781L13.125 1.96875L14.1953 3.02344L6.89844 10.3125L5.375 10.9766ZM14.7734 2.45312L13.7031 1.375L14.2734 0.8125C14.4036 0.6875 14.5521 0.619792 14.7188 0.609375C14.8906 0.598958 15.0365 0.653646 15.1562 0.773438L15.3359 0.960938C15.4714 1.09115 15.5365 1.24219 15.5312 1.41406C15.5312 1.58073 15.4661 1.73438 15.3359 1.875L14.7734 2.45312Z" fill="#434A65"/>
</svg>
