<svg width="9" height="9" viewBox="0 0 9 9" fill="none" xmlns="http://www.w3.org/2000/svg">
<path d="M6.48633 0.292969C6.87681 -0.0975094 7.50986 -0.0974171 7.90039 0.292969C8.29075 0.683506 8.29086 1.31656 7.90039 1.70703L5.51074 4.09668L7.90039 6.48633C8.29075 6.87687 8.29086 7.50992 7.90039 7.90039C7.50992 8.29086 6.87687 8.29075 6.48633 7.90039L4.09668 5.51074L1.70703 7.90039C1.31656 8.29086 0.683506 8.29075 0.292969 7.90039C-0.0974171 7.50986 -0.0975094 6.87681 0.292969 6.48633L2.68262 4.09668L0.292969 1.70703C-0.0975555 1.31651 -0.0975555 0.683493 0.292969 0.292969C0.683493 -0.0975555 1.31651 -0.0975555 1.70703 0.292969L4.09668 2.68262L6.48633 0.292969Z" fill="#545A79"/>
</svg>
