<svg width="16" height="16" viewBox="0 0 16 16" fill="none" xmlns="http://www.w3.org/2000/svg">
<path d="M5.17969 13.0603C5.33073 13.0603 5.45312 13.0219 5.54688 12.9449C5.64062 12.8679 5.6849 12.7683 5.67969 12.646L5.42969 5.16165C5.42969 5.03488 5.38281 4.93526 5.28906 4.86282C5.19531 4.79038 5.07552 4.75415 4.92969 4.75415C4.77344 4.75415 4.64844 4.79264 4.55469 4.86961C4.46615 4.94206 4.42448 5.04167 4.42969 5.16844L4.66406 12.646C4.67448 12.7728 4.72396 12.8747 4.8125 12.9517C4.90625 13.0241 5.02865 13.0603 5.17969 13.0603ZM7.5625 13.0603C7.71875 13.0603 7.84375 13.0241 7.9375 12.9517C8.03646 12.8747 8.08594 12.7728 8.08594 12.646V5.16844C8.08594 5.04167 8.03646 4.94206 7.9375 4.86961C7.84375 4.79264 7.71875 4.75415 7.5625 4.75415C7.41146 4.75415 7.28646 4.79264 7.1875 4.86961C7.09375 4.94206 7.04688 5.04167 7.04688 5.16844V12.646C7.04688 12.7728 7.09375 12.8747 7.1875 12.9517C7.28646 13.0241 7.41146 13.0603 7.5625 13.0603ZM9.95312 13.0603C10.1042 13.0603 10.224 13.0241 10.3125 12.9517C10.4062 12.8792 10.4557 12.7774 10.4609 12.646L10.6953 5.16844C10.7005 5.04167 10.6562 4.94206 10.5625 4.86961C10.474 4.79264 10.3516 4.75415 10.1953 4.75415C10.0547 4.75415 9.9375 4.79038 9.84375 4.86282C9.75 4.93526 9.70052 5.03714 9.69531 5.16844L9.45312 12.646C9.44792 12.7728 9.48958 12.8747 9.57812 12.9517C9.67188 13.0241 9.79688 13.0603 9.95312 13.0603ZM4.13281 3.10378V1.58245C4.13281 1.09346 4.30469 0.708595 4.64844 0.427874C4.9974 0.142625 5.47135 0 6.07031 0H9.03906C9.63802 0 10.1094 0.142625 10.4531 0.427874C10.8021 0.708595 10.9766 1.09346 10.9766 1.58245V3.10378H9.73438V1.65037C9.73438 1.4602 9.66146 1.30626 9.51562 1.18854C9.375 1.07082 9.1875 1.01196 8.95312 1.01196H6.15625C5.92188 1.01196 5.73177 1.07082 5.58594 1.18854C5.44531 1.30626 5.375 1.4602 5.375 1.65037V3.10378H4.13281ZM0.585938 3.64711C0.429688 3.64711 0.291667 3.59731 0.171875 3.4977C0.0572917 3.39356 0 3.27131 0 3.13095C0 2.99512 0.0572917 2.87739 0.171875 2.77778C0.291667 2.67365 0.429688 2.62158 0.585938 2.62158H14.5469C14.7031 2.62158 14.8385 2.67138 14.9531 2.77099C15.0677 2.8706 15.125 2.99059 15.125 3.13095C15.125 3.27131 15.0677 3.39356 14.9531 3.4977C14.8438 3.59731 14.7083 3.64711 14.5469 3.64711H0.585938ZM3.98438 15.125C3.42188 15.125 2.96615 14.9801 2.61719 14.6903C2.27344 14.4051 2.08854 14.018 2.0625 13.529L1.50781 3.50449H13.6172L13.0703 13.5222C13.0443 14.0112 12.8568 14.4006 12.5078 14.6903C12.1589 14.9801 11.7057 15.125 11.1484 15.125H3.98438Z" fill="#8B93A6"/>
</svg>
