<svg width="48" height="48" viewBox="0 0 48 48" fill="none" xmlns="http://www.w3.org/2000/svg">
<rect width="48" height="48" rx="8" fill="#D7F1D5"/>
<path d="M32.4258 33.2734H16.2891C15.2891 33.2734 14.3633 33.1055 13.5117 32.7695C12.6602 32.4336 11.9141 31.9766 11.2734 31.3984C10.6406 30.8125 10.1484 30.1367 9.79688 29.3711C9.44531 28.6055 9.26953 27.793 9.26953 26.9336C9.26953 25.9805 9.44141 25.1016 9.78516 24.2969C10.1367 23.4922 10.6328 22.8242 11.2734 22.293C11.9219 21.7617 12.6875 21.4258 13.5703 21.2852C13.5859 20.4648 13.7734 19.7266 14.1328 19.0703C14.4922 18.4062 14.9648 17.8594 15.5508 17.4297C16.1367 16.9922 16.7852 16.7031 17.4961 16.5625C18.2148 16.4141 18.9336 16.4453 19.6523 16.6562C20.1211 15.9688 20.6836 15.3438 21.3398 14.7812C22.0039 14.2109 22.7617 13.7578 23.6133 13.4219C24.4727 13.0781 25.4336 12.9062 26.4961 12.9062C27.6992 12.9062 28.8164 13.1289 29.8477 13.5742C30.8867 14.0117 31.793 14.6367 32.5664 15.4492C33.3477 16.2539 33.9531 17.207 34.3828 18.3086C34.8125 19.4023 35.0273 20.6016 35.0273 21.9062C35.793 22.2266 36.4531 22.668 37.0078 23.2305C37.5625 23.7852 37.9883 24.4258 38.2852 25.1523C38.582 25.8711 38.7305 26.6406 38.7305 27.4609C38.7305 28.2656 38.5703 29.0195 38.25 29.7227C37.9297 30.4258 37.4805 31.043 36.9023 31.5742C36.332 32.1055 35.6641 32.5195 34.8984 32.8164C34.1328 33.1211 33.3086 33.2734 32.4258 33.2734ZM23.168 28.668C23.5742 28.668 23.8867 28.4883 24.1055 28.1289L28.6992 20.6641C28.7539 20.5703 28.8086 20.4609 28.8633 20.3359C28.9258 20.2109 28.957 20.0781 28.957 19.9375C28.957 19.6797 28.8594 19.4648 28.6641 19.293C28.4766 19.1211 28.2461 19.0352 27.9727 19.0352C27.6133 19.0352 27.332 19.2109 27.1289 19.5625L23.1211 26.2539L21.1055 23.6172C20.8867 23.3047 20.5977 23.1484 20.2383 23.1484C19.9805 23.1484 19.7578 23.2422 19.5703 23.4297C19.3828 23.6094 19.2891 23.8398 19.2891 24.1211C19.2891 24.3633 19.3789 24.6016 19.5586 24.8359L22.1836 28.1406C22.3242 28.3203 22.4727 28.4531 22.6289 28.5391C22.793 28.625 22.9727 28.668 23.168 28.668Z" fill="url(#paint0_linear_1191_1963)"/>
<defs>
<linearGradient id="paint0_linear_1191_1963" x1="14.5" y1="9" x2="36" y2="41.5" gradientUnits="userSpaceOnUse">
<stop stop-color="#7CD175"/>
<stop offset="1" stop-color="#32822B"/>
</linearGradient>
</defs>
</svg>
