<svg width="19" height="12" viewBox="0 0 19 12" fill="none" xmlns="http://www.w3.org/2000/svg">
<path d="M9.26953 11.6211C8.36719 11.6211 7.5127 11.5117 6.70605 11.293C5.89941 11.0742 5.15202 10.7848 4.46387 10.4248C3.77572 10.0648 3.15592 9.66829 2.60449 9.23535C2.05762 8.79785 1.58822 8.36263 1.19629 7.92969C0.808919 7.49219 0.512695 7.08659 0.307617 6.71289C0.102539 6.33919 0 6.03841 0 5.81055C0 5.57812 0.102539 5.27734 0.307617 4.9082C0.512695 4.53451 0.808919 4.12891 1.19629 3.69141C1.58822 3.25391 2.05762 2.81868 2.60449 2.38574C3.15592 1.9528 3.77572 1.55632 4.46387 1.19629C5.15202 0.836263 5.89941 0.546875 6.70605 0.328125C7.5127 0.109375 8.36719 0 9.26953 0C10.181 0 11.04 0.109375 11.8467 0.328125C12.6579 0.546875 13.4076 0.836263 14.0957 1.19629C14.7839 1.55632 15.4014 1.9528 15.9482 2.38574C16.4951 2.81868 16.96 3.25391 17.3428 3.69141C17.7301 4.12891 18.0241 4.53451 18.2246 4.9082C18.4297 5.27734 18.5322 5.57812 18.5322 5.81055C18.5322 6.03841 18.4297 6.33919 18.2246 6.71289C18.0241 7.08659 17.7301 7.49219 17.3428 7.92969C16.96 8.36263 16.4951 8.79785 15.9482 9.23535C15.4059 9.66829 14.7907 10.0648 14.1025 10.4248C13.4144 10.7848 12.6647 11.0742 11.8535 11.293C11.0423 11.5117 10.181 11.6211 9.26953 11.6211ZM9.26953 9.63184C9.79362 9.63184 10.2858 9.53385 10.7461 9.33789C11.2109 9.13737 11.6188 8.86165 11.9697 8.51074C12.3206 8.15983 12.5941 7.75423 12.79 7.29395C12.9906 6.83366 13.0908 6.33919 13.0908 5.81055C13.0908 5.2819 12.9906 4.78743 12.79 4.32715C12.5941 3.86686 12.3206 3.46126 11.9697 3.11035C11.6188 2.75944 11.2109 2.486 10.7461 2.29004C10.2858 2.08952 9.79362 1.98926 9.26953 1.98926C8.74089 1.98926 8.24642 2.08952 7.78613 2.29004C7.32585 2.486 6.92025 2.75944 6.56934 3.11035C6.21842 3.46126 5.94271 3.86686 5.74219 4.32715C5.54622 4.78743 5.44824 5.2819 5.44824 5.81055C5.44824 6.33919 5.54622 6.83366 5.74219 7.29395C5.94271 7.75423 6.21842 8.15983 6.56934 8.51074C6.92025 8.86165 7.32585 9.13737 7.78613 9.33789C8.24642 9.53385 8.74089 9.63184 9.26953 9.63184ZM9.26953 7.20508C8.88216 7.20508 8.55176 7.07064 8.27832 6.80176C8.00944 6.52832 7.875 6.19792 7.875 5.81055C7.875 5.42318 8.00944 5.09505 8.27832 4.82617C8.55176 4.55273 8.88216 4.41602 9.26953 4.41602C9.65234 4.41602 9.98047 4.55273 10.2539 4.82617C10.5273 5.09505 10.6641 5.42318 10.6641 5.81055C10.6641 6.19792 10.5273 6.52832 10.2539 6.80176C9.98047 7.07064 9.65234 7.20508 9.26953 7.20508Z" fill="#8B93A6"/>
</svg>
