<svg width="10" height="9" viewBox="0 0 10 9" fill="none" xmlns="http://www.w3.org/2000/svg">
<path d="M3.99414 8.86426C3.73372 8.86426 3.51237 8.75195 3.33008 8.52734L0.800781 5.41211C0.729167 5.32747 0.677083 5.24447 0.644531 5.16309C0.615234 5.08171 0.600586 4.99707 0.600586 4.90918C0.600586 4.71387 0.66569 4.55273 0.795898 4.42578C0.926107 4.29883 1.09049 4.23535 1.28906 4.23535C1.51367 4.23535 1.70247 4.33138 1.85547 4.52344L3.97461 7.20898L8.11035 0.65625C8.19499 0.526042 8.28288 0.434896 8.37402 0.382812C8.46517 0.327474 8.5791 0.299805 8.71582 0.299805C8.91439 0.299805 9.07715 0.361654 9.2041 0.485352C9.33105 0.609049 9.39453 0.766927 9.39453 0.958984C9.39453 1.03711 9.38151 1.11523 9.35547 1.19336C9.32943 1.27148 9.28874 1.35286 9.2334 1.4375L4.66309 8.50781C4.50684 8.74544 4.28385 8.86426 3.99414 8.86426Z" fill="#32822B"/>
</svg>
