<svg width="48" height="48" viewBox="0 0 48 48" fill="none" xmlns="http://www.w3.org/2000/svg">
<rect width="48" height="48" rx="8" fill="#F4DAD8"/>
<path d="M20.7422 26.5781C21 26.5781 21.2188 26.4883 21.3984 26.3086C21.5859 26.1289 21.6797 25.918 21.6797 25.6758V13.7461L21.6094 12L22.2656 12.6914L24.0703 14.625C24.2344 14.8125 24.4453 14.9062 24.7031 14.9062C24.9453 14.9062 25.1484 14.8281 25.3125 14.6719C25.4766 14.5156 25.5586 14.3203 25.5586 14.0859C25.5586 13.8594 25.4688 13.6523 25.2891 13.4648L21.4219 9.73828C21.3047 9.62109 21.1914 9.54297 21.082 9.50391C20.9805 9.45703 20.8672 9.43359 20.7422 9.43359C20.625 9.43359 20.5117 9.45703 20.4023 9.50391C20.3008 9.54297 20.1875 9.62109 20.0625 9.73828L16.207 13.4648C16.0195 13.6523 15.9258 13.8594 15.9258 14.0859C15.9258 14.3203 16.0039 14.5156 16.1602 14.6719C16.3242 14.8281 16.5273 14.9062 16.7695 14.9062C17.0352 14.9062 17.25 14.8125 17.4141 14.625L19.2305 12.6914L19.8867 12L19.8164 13.7461V25.6758C19.8164 25.918 19.9062 26.1289 20.0859 26.3086C20.2734 26.4883 20.4922 26.5781 20.7422 26.5781ZM15.2461 35.7539C13.6758 35.7539 12.4648 35.3281 11.6133 34.4766C10.7695 33.6328 10.3477 32.4258 10.3477 30.8555V21.832C10.3477 20.2539 10.7695 19.043 11.6133 18.1992C12.4648 17.3555 13.6758 16.9336 15.2461 16.9336H26.2383C27.8164 16.9336 29.0273 17.3555 29.8711 18.1992C30.7227 19.043 31.1484 20.2539 31.1484 21.832V25.043C30.5938 25.043 30.0703 25.1836 29.5781 25.4648C29.0859 25.7461 28.6992 26.1406 28.418 26.6484L23.4727 35.4844C23.4492 35.5312 23.4258 35.5742 23.4023 35.6133C23.3789 35.6602 23.3555 35.707 23.332 35.7539H15.2461ZM26.1914 38.5664C25.7227 38.5664 25.3477 38.418 25.0664 38.1211C24.793 37.8242 24.6562 37.4609 24.6562 37.0312C24.6562 36.7734 24.7266 36.5195 24.8672 36.2695L29.8125 27.4102C29.9531 27.1523 30.1445 26.957 30.3867 26.8242C30.6367 26.6914 30.8945 26.625 31.1602 26.625C31.4102 26.625 31.6562 26.6914 31.8984 26.8242C32.1406 26.957 32.332 27.1523 32.4727 27.4102L37.4414 36.2695C37.582 36.5195 37.6523 36.7734 37.6523 37.0312C37.6523 37.4609 37.5117 37.8242 37.2305 38.1211C36.9492 38.418 36.5742 38.5664 36.1055 38.5664H26.1914ZM31.1484 36.8203C31.4141 36.8203 31.6406 36.7266 31.8281 36.5391C32.0234 36.3516 32.1211 36.125 32.1211 35.8594C32.1289 35.5938 32.0352 35.3672 31.8398 35.1797C31.6523 34.9922 31.4219 34.8984 31.1484 34.8984C30.8906 34.8984 30.6641 34.9922 30.4688 35.1797C30.2734 35.3672 30.1758 35.5938 30.1758 35.8594C30.1758 36.125 30.2734 36.3516 30.4688 36.5391C30.6641 36.7266 30.8906 36.8203 31.1484 36.8203ZM31.1484 34.1016C31.3516 34.1016 31.5156 34.0391 31.6406 33.9141C31.7734 33.7891 31.8438 33.6289 31.8516 33.4336L31.9453 30.1641C31.9453 29.9297 31.8711 29.7383 31.7227 29.5898C31.582 29.4414 31.3906 29.3672 31.1484 29.3672C30.9141 29.3672 30.7227 29.4414 30.5742 29.5898C30.4258 29.7383 30.3555 29.9297 30.3633 30.1641L30.457 33.4336C30.4648 33.6289 30.5312 33.7891 30.6562 33.9141C30.7891 34.0391 30.9531 34.1016 31.1484 34.1016Z" fill="url(#paint0_linear_1288_274)"/>
<defs>
<linearGradient id="paint0_linear_1288_274" x1="7.75391" y1="12.1523" x2="37.2539" y2="42.6523" gradientUnits="userSpaceOnUse">
<stop stop-color="#DD928F"/>
<stop offset="1" stop-color="#B8484D"/>
</linearGradient>
</defs>
</svg>
