<svg width="48" height="48" viewBox="0 0 48 48" fill="none" xmlns="http://www.w3.org/2000/svg">
<rect width="48" height="48" rx="8" fill="#EDEDED"/>
<path d="M14.1328 25.293V15.1562C14.1328 13.9375 14.4336 13.0195 15.0352 12.4023C15.6445 11.7852 16.5547 11.4766 17.7656 11.4766H23.1445V20.0781C23.1445 21.5547 23.8828 22.293 25.3594 22.293H33.8438V32.9336C33.8438 34.1523 33.5391 35.0664 32.9297 35.6758C32.3281 36.293 31.4219 36.6016 30.2109 36.6016H20.6719C21 36.0469 21.25 35.4531 21.4219 34.8203C21.6016 34.1875 21.6914 33.5352 21.6914 32.8633C21.6914 31.8242 21.4961 30.8477 21.1055 29.9336C20.7148 29.0195 20.1719 28.2148 19.4766 27.5195C18.7812 26.8242 17.9766 26.2812 17.0625 25.8906C16.1484 25.4922 15.1719 25.293 14.1328 25.293ZM25.3945 20.6875C24.9648 20.6875 24.75 20.4766 24.75 20.0547V11.6055C24.9922 11.6445 25.2383 11.75 25.4883 11.9219C25.7383 12.0859 26 12.3086 26.2734 12.5898L32.7305 19.1641C33.0117 19.4531 33.2344 19.7188 33.3984 19.9609C33.5625 20.2031 33.6641 20.4453 33.7031 20.6875H25.3945ZM14.1328 38.8164C13.3203 38.8164 12.5547 38.6602 11.8359 38.3477C11.1172 38.043 10.4844 37.6172 9.9375 37.0703C9.39062 36.5234 8.96094 35.8906 8.64844 35.1719C8.33594 34.4531 8.17969 33.6836 8.17969 32.8633C8.17969 32.043 8.33594 31.2773 8.64844 30.5664C8.96094 29.8477 9.39062 29.2148 9.9375 28.668C10.4844 28.1133 11.1172 27.6836 11.8359 27.3789C12.5547 27.0664 13.3203 26.9102 14.1328 26.9102C14.9531 26.9102 15.7227 27.0664 16.4414 27.3789C17.1602 27.6836 17.793 28.1094 18.3398 28.6562C18.8867 29.2031 19.3125 29.8359 19.6172 30.5547C19.9297 31.2734 20.0859 32.043 20.0859 32.8633C20.0859 33.6758 19.9297 34.4414 19.6172 35.1602C19.3047 35.8789 18.8711 36.5117 18.3164 37.0586C17.7695 37.6055 17.1367 38.0352 16.418 38.3477C15.6992 38.6602 14.9375 38.8164 14.1328 38.8164ZM14.1328 36.5898C14.3516 36.5898 14.5234 36.5234 14.6484 36.3906C14.7812 36.2578 14.8477 36.0859 14.8477 35.875V33.5781H17.1445C17.3555 33.5781 17.5273 33.5117 17.6602 33.3789C17.793 33.2539 17.8594 33.082 17.8594 32.8633C17.8594 32.6445 17.793 32.4727 17.6602 32.3477C17.5273 32.2148 17.3555 32.1484 17.1445 32.1484H14.8477V29.8516C14.8477 29.6406 14.7812 29.4688 14.6484 29.3359C14.5234 29.2031 14.3516 29.1367 14.1328 29.1367C13.9141 29.1367 13.7383 29.2031 13.6055 29.3359C13.4805 29.4688 13.418 29.6406 13.418 29.8516V32.1484H11.1211C10.9102 32.1484 10.7383 32.2148 10.6055 32.3477C10.4727 32.4727 10.4062 32.6445 10.4062 32.8633C10.4062 33.082 10.4727 33.2539 10.6055 33.3789C10.7383 33.5117 10.9102 33.5781 11.1211 33.5781H13.418V35.875C13.418 36.0859 13.4805 36.2578 13.6055 36.3906C13.7383 36.5234 13.9141 36.5898 14.1328 36.5898Z" fill="#8B93A6"/>
</svg>
