<svg width="48" height="48" viewBox="0 0 48 48" fill="none" xmlns="http://www.w3.org/2000/svg">
<rect width="48" height="48" rx="8" fill="#E9EDFA"/>
<path d="M17.7773 36.6016C16.5664 36.6016 15.6562 36.2969 15.0469 35.6875C14.4453 35.0781 14.1445 34.1602 14.1445 32.9336V15.1562C14.1445 13.9375 14.4453 13.0195 15.0469 12.4023C15.6562 11.7852 16.5664 11.4766 17.7773 11.4766H23.1562V20.0781C23.1562 21.5547 23.8945 22.293 25.3711 22.293H33.8555V32.9336C33.8555 34.1523 33.5508 35.0664 32.9414 35.6758C32.3398 36.293 31.4336 36.6016 30.2227 36.6016H17.7773ZM25.4062 20.6875C24.9766 20.6875 24.7617 20.4766 24.7617 20.0547V11.6055C25.0039 11.6445 25.25 11.75 25.5 11.9219C25.75 12.0859 26.0117 12.3086 26.2852 12.5898L32.7422 19.1641C33.0234 19.4531 33.2461 19.7188 33.4102 19.9609C33.5742 20.2031 33.6758 20.4453 33.7148 20.6875H25.4062ZM24.9727 33.2031V28.8672L24.8906 26.8984L25.8984 27.9531L26.9648 29.0312C27.0508 29.1172 27.1484 29.1875 27.2578 29.2422C27.375 29.2891 27.4922 29.3125 27.6094 29.3125C27.8516 29.3125 28.0547 29.2344 28.2188 29.0781C28.3906 28.9219 28.4766 28.7188 28.4766 28.4688C28.4766 28.3281 28.4453 28.207 28.3828 28.1055C28.3281 28.0039 28.2539 27.9062 28.1602 27.8125L24.7148 24.6484C24.5898 24.5312 24.4766 24.4531 24.375 24.4141C24.2734 24.3672 24.1602 24.3438 24.0352 24.3438C23.918 24.3438 23.8086 24.3672 23.707 24.4141C23.6055 24.4531 23.4883 24.5312 23.3555 24.6484L19.9102 27.8125C19.8164 27.9062 19.7422 28.0039 19.6875 28.1055C19.6328 28.207 19.6055 28.3281 19.6055 28.4688C19.6055 28.7188 19.6836 28.9219 19.8398 29.0781C20.0039 29.2344 20.2109 29.3125 20.4609 29.3125C20.5781 29.3125 20.6953 29.2891 20.8125 29.2422C20.9297 29.1875 21.0312 29.1172 21.1172 29.0312L22.1719 27.9531L23.1797 26.8984L23.1094 28.8672V33.2031C23.1094 33.4453 23.1992 33.6523 23.3789 33.8242C23.5664 34.0039 23.7852 34.0938 24.0352 34.0938C24.293 34.0938 24.5117 34.0039 24.6914 33.8242C24.8789 33.6523 24.9727 33.4453 24.9727 33.2031Z" fill="url(#paint0_linear_1191_1940)"/>
<defs>
<linearGradient id="paint0_linear_1191_1940" x1="14.168" y1="9" x2="37" y2="42.5" gradientUnits="userSpaceOnUse">
<stop stop-color="#9CABE8"/>
<stop offset="1" stop-color="#2748CE"/>
</linearGradient>
</defs>
</svg>
