<svg width="44" height="43" viewBox="0 0 44 43" fill="none" xmlns="http://www.w3.org/2000/svg">
<path d="M43.9999 17.4972C43.9978 18.6281 40.5622 27.3805 39.5813 27.3791C38.5998 27.3777 29.8275 15.1684 29.8296 14.0374C29.8303 13.4196 32.2451 13.2439 34.39 12.4222C36.1705 11.7396 37.3476 10.1864 37.7926 10.1871C38.7741 10.1885 44.0019 16.3669 43.9999 17.4972Z" fill="#B3CEF9"/>
<path d="M42.7726 24.2747L43.2141 26.1096L35.4771 21.2503L35.4812 18.6619L36.6783 18.8961L42.7726 24.2747Z" fill="#8FAFF4"/>
<path d="M33.6627 35.4771L28.3997 39.1042C28.3997 39.1042 22.7628 37.3754 22.7642 36.7775C22.7648 36.1803 25.1343 30.0598 25.7101 30.0612C26.2859 30.0619 33.6627 35.4771 33.6627 35.4771Z" fill="#8FAFF4"/>
<path d="M43.2139 25.9558C43.2139 25.9557 43.2138 25.9557 43.2138 25.9558L41.0607 31.6249C40.9074 32.0287 40.5343 32.3072 40.1036 32.3395L36.2945 32.6253C34.1973 32.7826 32.1387 32.0066 30.6785 30.4929C27.1405 26.8253 20.7807 20.1535 20.7817 19.5862C20.7838 18.3918 27.7784 13.2239 28.4396 13.2246C29.1007 13.2253 43.2107 25.9531 43.2139 25.956C43.214 25.9561 43.2139 25.9559 43.2139 25.9558Z" fill="#CBDFFB"/>
<path d="M37.2919 10.9813C37.2919 10.9813 37.2918 10.9813 37.2918 10.9812L31.5943 4.6135C30.1358 2.98347 28.1831 1.87658 26.0354 1.46241L22.5919 0.798355L21.1285 0.360427C20.3534 0.12848 19.5198 0.192564 18.7892 0.540257L18.6289 0.616555C17.3505 1.225 16.661 2.63503 16.9656 4.01767C17.3307 5.67411 16.2723 7.30933 14.6146 7.66867C11.2406 8.40007 6.24069 9.53749 6.24024 9.85513C6.23886 10.3455 6.7954 16.3848 7.88367 16.3875C8.21291 16.3882 15.5567 21.1718 21.4685 20.8667C22.8268 20.7966 24.1429 19.8598 25.2677 18.767C26.3721 17.6942 28.6696 18.3275 29.4005 16.9723C29.565 16.6674 37.282 10.989 37.2925 10.9813C37.2927 10.9812 37.2921 10.9813 37.2919 10.9813Z" fill="#EAF2FE"/>
<path d="M9.13277 21.5953C9.12588 26.0111 15.8002 38.5242 14.0507 38.5214C13.1187 38.52 8.55695 36.3931 5.83283 32.4057C4.76522 30.8436 3.49166 28.5851 3.02191 26.7619C2.43989 24.5027 2.79668 22.7277 2.79806 21.5857C2.80494 17.1699 1.4081 13.8583 3.1576 13.861C4.9071 13.8638 9.13965 17.1796 9.13277 21.596V21.5953Z" fill="#E0ECFD"/>
<path d="M33.7358 35.4044C33.7357 35.4043 33.7355 35.4044 33.7355 35.4046C33.7392 35.5129 33.6229 35.5238 33.4262 35.4798C33.0866 35.4034 32.5094 35.1616 31.9067 34.9701C31.7835 34.9309 31.6588 34.8937 31.5348 34.8599C30.9369 34.6994 30.5939 35.0514 29.9127 34.7029C28.7239 34.0947 27.6845 32.8804 26.7106 32.3803C25.5941 31.8079 22.0496 32.4988 22.0503 32.0297C22.0515 31.133 23.5554 26.5047 24.8068 22.8078C25.5387 20.6459 28.3214 20.0969 29.8399 21.8008L33.8475 26.298C34.4154 26.9353 34.6437 27.8046 34.4863 28.6436C34.1607 30.3794 33.6601 33.4266 33.7361 35.4043C33.7361 35.4045 33.7359 35.4045 33.7358 35.4044Z" fill="#B3CEF9"/>
<path d="M17.877 13.3404C17.8769 13.3404 17.8768 13.3402 17.8767 13.3404C17.8751 13.3466 17.2924 15.5644 17.0964 15.5204C16.7568 15.4439 15.7574 16.798 15.1554 16.6066C15.0321 16.5673 15.329 14.9342 15.205 14.9005C14.6071 14.74 14.2641 15.0919 13.5829 14.7434C12.3941 14.1352 8.14566 15.6547 7.17172 15.1546C6.67149 14.8982 6.43741 13.7788 6.3314 12.6213C6.17309 10.8925 7.39885 9.39837 9.07238 8.93683L11.5269 8.25992L14.3569 7.6773C16.0991 7.31863 17.7428 8.61986 17.7935 10.3979L17.8774 13.34C17.8774 13.3402 17.8772 13.3404 17.877 13.3404Z" fill="#B3CEF9"/>
<path d="M15.5966 25.8737C15.5964 25.8739 15.5962 25.8741 15.5962 25.8744C15.594 26.5723 12.9985 36.3865 11.1026 34.1718C10.8278 33.8508 9.75952 33.7558 9.48263 32.8177C9.24225 32.0028 9.83666 30.3752 9.10105 29.6107C8.02104 28.4887 8.02587 27.5609 7.8702 26.4802C7.27097 22.3365 6.70822 21.9232 6.60284 21.6883C5.64819 19.5579 3.35111 17.0969 2.81662 14.9734C2.69013 14.4704 2.69637 13.596 2.73089 12.8785C2.7662 12.1444 3.20392 11.4988 3.85111 11.1505C5.08478 10.4865 6.67031 11.1046 7.34925 12.3301C7.5198 12.6379 7.7126 12.9657 7.92943 13.308C10.7275 17.7258 15.5969 24.9628 15.5969 25.873C15.5969 25.8733 15.5968 25.8735 15.5966 25.8737Z" fill="#E0ECFD"/>
<path d="M2.38219 28.4797C2.38195 28.4797 2.38175 28.4796 2.38168 28.4793L0.189242 20.7246C0.0640202 20.2817 0.0161822 19.8205 0.047834 19.3613L0.209815 17.0114C0.253887 16.372 0.45094 15.7526 0.784382 15.2053L2.46618 12.4448C2.71759 12.0322 3.24219 11.8793 3.67588 12.0924C4.21331 12.3564 4.36707 13.0508 3.99135 13.517L3.42266 14.2227C3.14163 14.5714 3.01354 15.019 3.06751 15.4636L4.36527 26.154C4.40905 26.5146 4.34942 26.8803 4.19334 27.2083C3.90813 27.8077 3.95185 28.5097 4.33023 29.0551C5.81091 31.1895 9.7383 36.4811 12.5089 36.8349C12.8127 36.8737 13.1026 37.0453 13.2041 37.3343C13.3962 37.8813 12.8326 38.3883 12.309 38.1397L7.40696 35.8125C6.89389 35.5689 6.46317 35.1807 6.16777 34.6956L2.38263 28.48C2.38254 28.4798 2.38237 28.4797 2.38219 28.4797Z" fill="#CBDFFB"/>
<path d="M24.1582 34.4242C24.1582 34.4242 24.1582 34.4242 24.1582 34.4242C24.3196 35.2828 22.4573 38.1359 19.8726 39.6511C18.7928 40.2839 17.8348 40.8254 17.0806 41.2438C16.1197 41.777 14.9191 41.4089 14.402 40.4393L10.9818 34.0258L10.4923 33.0696C10.1365 32.3749 10.2175 31.5366 10.6996 30.9228L13.1481 27.8054C13.7875 26.9913 15.0023 27.1653 15.7089 27.9218C17.3915 29.7235 23.8776 32.9432 24.1581 34.4243C24.1581 34.4243 24.1582 34.4243 24.1582 34.4242Z" fill="#B3CEF9"/>
<path d="M21.2856 18.6591C21.2856 18.905 24.6262 21.335 25.7571 24.7307C26.7269 27.6435 25.5484 31.4098 25.1641 33.4982C24.4429 37.4173 18.1985 36.1142 17.7824 36.1135C16.8863 36.1121 7.35019 13.195 7.35156 12.3416C7.35225 11.8553 9.55842 11.0488 11.6227 10.4447C13.1807 9.98873 15.0425 9.64917 15.0425 9.64917L15.9028 15.4253L17.9533 13.3038C17.9533 13.3038 21.287 18.365 21.2863 18.6591H21.2856Z" fill="#CBDFFB"/>
<path d="M20.7041 40.639C20.7041 40.6389 20.704 40.6388 20.7039 40.6388L16.6247 41.8186C16.3169 41.9077 16.1004 41.5221 16.3419 41.3115C18.722 39.2366 24.5414 34.2109 25.0661 34.2131C25.7269 34.2159 20.7104 40.6313 20.7041 40.6394C20.704 40.6396 20.7041 40.6391 20.7041 40.639Z" fill="#8FAFF4"/>
<path d="M25.4297 23.6679L17.0693 22.5927L16.9922 22.322L25.6274 21.0801L25.4297 23.6679Z" fill="#B3CEF9"/>
</svg>
