<svg width="43" height="43" viewBox="0 0 43 43" fill="none" xmlns="http://www.w3.org/2000/svg">
<g filter="url(#filter0_f_1475_4977)">
<path d="M20.667 37.0507C11.8304 37.0507 4.66699 35.9314 4.66699 34.5507C4.66699 33.17 11.8304 32.0507 20.667 32.0507C29.5036 32.0507 36.667 33.17 36.667 34.5507C36.667 35.9314 29.5036 37.0507 20.667 37.0507Z" fill="#34394F" fill-opacity="0.1"/>
</g>
<path d="M29.7461 8.35198C30.3103 8.89287 33.0439 14.7874 32.575 15.2769C32.1058 15.7667 21.8175 14.3223 21.2533 13.7814C20.9449 13.4861 22.0099 12.1956 22.6231 10.7315C23.1319 9.51602 22.9176 8.18641 23.1304 7.96439C23.5996 7.47459 29.1823 7.81142 29.7461 8.35198Z" fill="#B3CEF9"/>
<path d="M32.5469 12.2005L33.6746 12.8558L27.5532 14.4024L26.2617 13.1648L26.9502 12.6784L32.5469 12.2005Z" fill="#8FAFF4"/>
<path d="M33.796 22.1001L33.0963 26.4613C33.0963 26.4613 29.5417 28.4529 29.2436 28.1668C28.9455 27.8814 27.0181 23.7759 27.2936 23.4888C27.5688 23.2014 33.796 22.1001 33.796 22.1001Z" fill="#8FAFF4"/>
<path d="M33.5975 12.7825C33.5975 12.7825 33.5974 12.7825 33.5974 12.7826L35.4026 16.5645C35.5311 16.8339 35.4922 17.1533 35.3028 17.3839L33.6274 19.4237C32.7049 20.5468 31.3345 21.205 29.8811 21.2121C26.3596 21.2294 19.9899 21.2226 19.7069 20.9513C19.1111 20.3802 19.8675 14.4182 20.1835 14.0881C20.4994 13.7581 33.5946 12.7828 33.5976 12.7826C33.5977 12.7826 33.5976 12.7825 33.5975 12.7825Z" fill="#CBDFFB"/>
<path d="M23.2882 8.5937C23.2881 8.59373 23.2881 8.59375 23.2881 8.59375L18.4276 8.4352C16.2415 8.36388 14.0923 9.01128 12.3093 10.2782L11.1829 11.0786L10.2655 11.6008C9.77965 11.8774 9.41377 12.3245 9.2388 12.8556L9.2004 12.9721C8.89422 13.9013 9.26965 14.919 10.106 15.4267C11.1079 16.035 11.4198 17.3444 10.8081 18.3443C9.56307 20.3794 7.74481 23.4207 7.90331 23.5726C8.14771 23.8074 11.4312 26.412 11.952 25.8695C12.1095 25.7053 18.0053 24.319 20.6747 21.2193C21.2881 20.5071 21.4482 19.4023 21.4391 18.3186C21.4301 17.2547 22.8433 16.4088 22.515 15.3968C22.4411 15.169 23.2873 8.60237 23.2884 8.59341C23.2885 8.59328 23.2882 8.59361 23.2882 8.5937Z" fill="#EAF2FE"/>
<path d="M15.1503 27.7314C17.3536 29.8426 26.7922 32.4805 25.9557 33.3534C25.5102 33.8184 22.2699 35.0826 18.9771 34.5406C17.6869 34.3284 15.9504 33.8867 14.8151 33.2511C13.4084 32.4636 12.6917 31.438 12.1217 30.8922C9.91845 28.781 7.59686 27.8982 8.43334 27.0253C9.26982 26.1524 12.9471 25.6201 15.1507 27.7317L15.1503 27.7314Z" fill="#E0ECFD"/>
<path d="M33.795 22.0288C33.7949 22.0288 33.7948 22.029 33.7949 22.029C33.8509 22.0789 33.8008 22.1422 33.6849 22.2195C33.4846 22.3527 33.0883 22.5257 32.7049 22.7355C32.6265 22.7783 32.5484 22.8229 32.4723 22.8687C32.1067 23.0909 32.1189 23.4303 31.6196 23.6043C30.7482 23.9081 29.6452 23.8478 28.9305 24.0958C28.1115 24.3805 26.7648 26.4814 26.5308 26.2572C26.1674 25.9091 25.0476 23.8918 23.9703 21.8661C22.8986 19.851 24.4241 17.4574 26.7051 17.5364L29.2979 17.6261C29.8874 17.6466 30.4308 17.9475 30.7749 18.4266C31.4868 19.4179 32.7706 21.1226 33.7951 22.0286C33.7952 22.0287 33.7951 22.0288 33.795 22.0288Z" fill="#B3CEF9"/>
<path d="M15.1994 19.4215C15.1993 19.4216 15.1992 19.4215 15.1993 19.4216C15.2016 19.4254 16.0317 20.7752 15.9161 20.8522C15.7158 20.9854 15.9154 22.1312 15.5324 22.3406C15.4539 22.3834 14.7796 21.4556 14.7035 21.5014C14.3379 21.7235 14.3501 22.063 13.8508 22.237C12.9794 22.5407 11.7107 25.3889 10.996 25.6369C10.7721 25.7147 10.4352 25.5898 10.0636 25.3671C8.57451 24.4748 8.40017 22.4556 9.22241 20.9267L9.62957 20.1696L10.6893 18.4773C11.3417 17.4355 12.7765 17.2353 13.6892 18.0587L15.1994 19.4211C15.1995 19.4212 15.1995 19.4214 15.1994 19.4215Z" fill="#B3CEF9"/>
<path d="M20.3739 26.5437C20.3739 26.5439 20.3739 26.5441 20.3741 26.5442C20.7217 26.8785 24.387 32.8601 22.3753 32.7503C22.0837 32.7344 21.5263 33.2229 20.9253 32.9134C20.4034 32.6446 19.8739 31.5707 19.1407 31.5733C18.0645 31.5774 17.6032 31.1321 16.9888 30.6941C14.6322 29.0156 14.1571 29.0995 13.9894 29.04C12.4692 28.5002 10.1429 28.4733 8.82668 27.7267C8.51493 27.5498 8.081 27.1293 7.73894 26.7696C7.38896 26.4015 7.27529 25.8746 7.41017 25.385C7.66728 24.4516 8.73297 23.9543 9.66942 24.2C9.90464 24.2617 10.1604 24.3218 10.435 24.3769C13.9782 25.0875 19.9188 26.1087 20.3737 26.5432C20.3738 26.5433 20.3739 26.5435 20.3739 26.5437Z" fill="#E0ECFD"/>
<path d="M15.3683 34.3908C15.3682 34.3909 15.368 34.3909 15.3679 34.3908L10.6362 31.8853C10.2295 31.6699 9.86292 31.386 9.55275 31.0459L8.64307 30.0486C8.31674 29.6908 8.08115 29.2598 7.95615 28.792L7.39579 26.6947C7.30959 26.3721 7.48363 26.037 7.79711 25.922C8.18559 25.7795 8.60596 26.0341 8.65959 26.4444L8.74076 27.0654C8.78087 27.3723 8.94337 27.65 9.1913 27.8352L15.1527 32.2897C15.3538 32.4399 15.5081 32.6443 15.5975 32.8788C15.7609 33.3075 16.1325 33.6207 16.5857 33.692C18.359 33.9709 22.8779 34.5343 24.3772 33.3187C24.5416 33.1854 24.7658 33.1225 24.9586 33.2097C25.3236 33.3748 25.308 33.8984 24.9338 34.0414L21.431 35.3801C21.0643 35.5202 20.6648 35.5501 20.2814 35.4662L15.3686 34.3907C15.3685 34.3906 15.3684 34.3907 15.3683 34.3908Z" fill="#CBDFFB"/>
<path d="M28.7333 26.3468C28.7332 26.3468 28.7333 26.3468 28.7333 26.3468C29.2393 26.676 29.7761 28.9685 29.2994 30.9833C29.1633 31.5584 29.033 32.0848 28.916 32.5444C28.6449 33.6094 27.5495 34.2239 26.4912 33.928L22.2446 32.7408L21.9123 32.6419C21.1642 32.4192 20.614 31.7817 20.5032 31.0091L20.1703 28.6891C20.0687 27.981 20.7355 27.4571 21.4509 27.4651C23.1543 27.4843 27.8593 25.7801 28.7332 26.3469C28.7333 26.3469 28.7333 26.3469 28.7333 26.3468Z" fill="#B3CEF9"/>
<path d="M19.4843 20.2571C19.6071 20.3745 22.416 19.8651 24.6527 20.9209C26.5711 21.8267 27.8906 24.2133 28.7507 25.4023C30.3648 27.6334 26.7329 30.1317 26.534 30.3392C26.1056 30.7864 10.102 24.6124 9.67622 24.2043C9.43355 23.9719 10.0836 22.4844 10.7671 21.1646C11.283 20.1684 12.002 19.076 12.002 19.076L15.2989 21.4033L15.2176 19.366C15.2176 19.366 19.338 20.116 19.4846 20.2568L19.4843 20.2571Z" fill="#CBDFFB"/>
<path d="M30.1901 31.0394C30.1901 31.0393 30.19 31.0393 30.19 31.0394L29.0241 33.2736C28.8759 33.5576 28.4482 33.4439 28.4633 33.1239C28.5746 30.7524 28.8246 26.0382 29.0613 25.7924C29.3781 25.4635 30.1894 31.0326 30.1904 31.0396C30.1904 31.0397 30.1902 31.0395 30.1901 31.0394Z" fill="#8FAFF4"/>
<path d="M24.8881 20.5866L19.6014 23.0326L19.4568 22.9026L24.052 19L24.8881 20.5866Z" fill="#B3CEF9"/>
<defs>
<filter id="filter0_f_1475_4977" x="1.66699" y="29.0507" width="38" height="11" filterUnits="userSpaceOnUse" color-interpolation-filters="sRGB">
<feFlood flood-opacity="0" result="BackgroundImageFix"/>
<feBlend mode="normal" in="SourceGraphic" in2="BackgroundImageFix" result="shape"/>
<feGaussianBlur stdDeviation="1.5" result="effect1_foregroundBlur_1475_4977"/>
</filter>
</defs>
</svg>
